<?xml version="1.0" encoding="UTF-8"?>
<svg id="Layer_1" data-name="Layer 1" xmlns="http://www.w3.org/2000/svg" viewBox="0 0 524 524">
  <defs>
    <style>
      .cls-1 {
        fill: #fff;
      }

      .cls-2 {
        fill: #1f004a;
      }
    </style>
  </defs>
  <rect class="cls-2" x="0" y="0" width="524" height="524" rx="262" ry="262"/>
  <path class="cls-1" d="M362.61,344.52c0-7.31,2.8-13.93,7.32-18.72,4.52-4.79,10.77-7.75,17.68-7.75s13.15,2.96,17.68,7.75c4.52,4.79,7.32,11.41,7.32,18.72s-2.8,13.93-7.32,18.72-10.77,7.75-17.68,7.75-13.15-2.96-17.68-7.75c-4.52-4.79-7.32-11.41-7.32-18.72Z"/>
  <path class="cls-1" d="M350.96,338.9c1.01-7.97,4.45-15.11,9.5-20.53,6.07-6.51,14.45-10.53,23.7-10.53,6.68,0,12.89,2.1,18.11,5.71L275.33,44.09,102.28,411.43h59.82L262.11,121.5h-.07l1.63-4.64,1.63,4.64h-.08l85.72,217.4Z"/>
</svg>