<?xml version="1.0" encoding="UTF-8"?>
<svg id="Layer_1" data-name="Layer 1" xmlns="http://www.w3.org/2000/svg" xmlns:xlink="http://www.w3.org/1999/xlink" viewBox="0 0 50 28.09">
  <defs>
    <style>
      .cls-1 {
        fill: url(#linear-gradient-2);
      }

      .cls-2 {
        fill: url(#linear-gradient-17);
      }

      .cls-3 {
        fill: url(#linear-gradient-15);
      }

      .cls-4 {
        fill: url(#linear-gradient-18);
      }

      .cls-5 {
        fill: url(#linear-gradient-28);
      }

      .cls-6 {
        fill: url(#linear-gradient-14);
      }

      .cls-7 {
        fill: url(#linear-gradient-36);
      }

      .cls-8 {
        fill: url(#linear-gradient-20);
      }

      .cls-9 {
        fill: url(#linear-gradient-6);
      }

      .cls-10 {
        fill: url(#linear-gradient-35);
      }

      .cls-11 {
        fill: url(#linear-gradient-32);
      }

      .cls-12 {
        fill: url(#linear-gradient-11);
      }

      .cls-13 {
        fill: url(#linear-gradient-10);
      }

      .cls-14 {
        fill: url(#linear-gradient-37);
      }

      .cls-15 {
        fill: url(#linear-gradient-16);
      }

      .cls-16 {
        fill: url(#linear-gradient-31);
      }

      .cls-17 {
        fill: url(#linear-gradient-21);
      }

      .cls-18 {
        fill: url(#linear-gradient-25);
      }

      .cls-19 {
        fill: url(#linear-gradient-5);
      }

      .cls-20 {
        fill: url(#linear-gradient-34);
      }

      .cls-21 {
        fill: url(#linear-gradient-7);
      }

      .cls-22 {
        fill: url(#linear-gradient-24);
      }

      .cls-23 {
        fill: url(#linear-gradient-9);
      }

      .cls-24 {
        fill: url(#linear-gradient-22);
      }

      .cls-25 {
        fill: url(#linear-gradient-3);
      }

      .cls-26 {
        fill: url(#linear-gradient);
      }

      .cls-27 {
        fill: url(#linear-gradient-27);
      }

      .cls-28 {
        fill: url(#linear-gradient-33);
      }

      .cls-29 {
        fill: url(#linear-gradient-38);
      }

      .cls-30 {
        fill: url(#linear-gradient-29);
      }

      .cls-31 {
        fill: url(#linear-gradient-30);
      }

      .cls-32 {
        fill: url(#linear-gradient-23);
      }

      .cls-33 {
        fill: url(#linear-gradient-19);
      }

      .cls-34 {
        fill: url(#linear-gradient-4);
      }

      .cls-35 {
        fill: url(#linear-gradient-8);
      }

      .cls-36 {
        fill: url(#linear-gradient-12);
      }

      .cls-37 {
        fill: url(#linear-gradient-13);
      }

      .cls-38 {
        fill: url(#linear-gradient-26);
      }
    </style>
    <linearGradient id="linear-gradient" x1="48.8" y1="11.67" x2="50" y2="11.67" gradientUnits="userSpaceOnUse">
      <stop offset="0" stop-color="#e60234"/>
      <stop offset="1" stop-color="#8b0f32"/>
    </linearGradient>
    <linearGradient id="linear-gradient-2" x1="34.18" y1="19.74" x2="35.39" y2="19.74" xlink:href="#linear-gradient"/>
    <linearGradient id="linear-gradient-3" x1="36.19" y1="21.51" x2="39.79" y2="21.51" xlink:href="#linear-gradient"/>
    <linearGradient id="linear-gradient-4" x1="18.14" y1="21.28" x2="22.16" y2="21.28" xlink:href="#linear-gradient"/>
    <linearGradient id="linear-gradient-5" x1=".02" y1="18.69" x2="13.38" y2="18.69" xlink:href="#linear-gradient"/>
    <linearGradient id="linear-gradient-6" x1="15.28" y1="17.72" x2="49.64" y2="17.72" xlink:href="#linear-gradient"/>
    <linearGradient id="linear-gradient-7" x1="0" y1="11.64" x2="20.14" y2="11.64" xlink:href="#linear-gradient"/>
    <linearGradient id="linear-gradient-8" x1="0" y1="24.66" x2="50" y2="24.66" xlink:href="#linear-gradient"/>
    <linearGradient id="linear-gradient-9" x1="15.5" y1="26.72" x2="15.73" y2="26.72" xlink:href="#linear-gradient"/>
    <linearGradient id="linear-gradient-10" x1="16.11" y1="26.95" x2="17.13" y2="26.95" xlink:href="#linear-gradient"/>
    <linearGradient id="linear-gradient-11" x1="17.37" y1="27.2" x2="18.47" y2="27.2" xlink:href="#linear-gradient"/>
    <linearGradient id="linear-gradient-12" x1="18.72" y1="26.96" x2="19.87" y2="26.96" xlink:href="#linear-gradient"/>
    <linearGradient id="linear-gradient-13" x1="20.12" y1="26.95" x2="21.14" y2="26.95" xlink:href="#linear-gradient"/>
    <linearGradient id="linear-gradient-14" x1="21.46" y1="26.97" x2="22.47" y2="26.97" xlink:href="#linear-gradient"/>
    <linearGradient id="linear-gradient-15" x1="22.8" y1="26.72" x2="23.01" y2="26.72" xlink:href="#linear-gradient"/>
    <linearGradient id="linear-gradient-16" x1="23.21" y1="26.75" x2="23.82" y2="26.75" xlink:href="#linear-gradient"/>
    <linearGradient id="linear-gradient-17" x1="23.88" y1="27.21" x2="25.02" y2="27.21" xlink:href="#linear-gradient"/>
    <linearGradient id="linear-gradient-18" x1="25.25" y1="27.46" x2="25.49" y2="27.46" xlink:href="#linear-gradient"/>
    <linearGradient id="linear-gradient-19" x1="25.93" y1="26.72" x2="26.16" y2="26.72" xlink:href="#linear-gradient"/>
    <linearGradient id="linear-gradient-20" x1="26.54" y1="26.95" x2="27.55" y2="26.95" xlink:href="#linear-gradient"/>
    <linearGradient id="linear-gradient-21" x1="27.88" y1="26.95" x2="28.89" y2="26.95" xlink:href="#linear-gradient"/>
    <linearGradient id="linear-gradient-22" x1="29.13" y1="26.96" x2="30.3" y2="26.96" xlink:href="#linear-gradient"/>
    <linearGradient id="linear-gradient-23" x1="30.42" y1="26.96" x2="31.56" y2="26.96" xlink:href="#linear-gradient"/>
    <linearGradient id="linear-gradient-24" x1="31.68" y1="26.96" x2="32.83" y2="26.96" xlink:href="#linear-gradient"/>
    <linearGradient id="linear-gradient-25" x1="32.97" y1="26.75" x2="33.57" y2="26.75" xlink:href="#linear-gradient"/>
    <linearGradient id="linear-gradient-26" x1="33.75" y1="26.72" x2="33.96" y2="26.72" xlink:href="#linear-gradient"/>
    <linearGradient id="linear-gradient-27" x1="34.21" y1="26.96" x2="35.38" y2="26.96" xlink:href="#linear-gradient"/>
    <linearGradient id="linear-gradient-28" x1="35.63" y1="26.95" x2="36.64" y2="26.95" xlink:href="#linear-gradient"/>
    <linearGradient id="linear-gradient-29" x1="37.01" y1="27.46" x2="37.25" y2="27.46" xlink:href="#linear-gradient"/>
    <linearGradient id="linear-gradient-30" x1="37.65" y1="26.72" x2="39.29" y2="26.72" xlink:href="#linear-gradient"/>
    <linearGradient id="linear-gradient-31" x1="39.56" y1="26.96" x2="40.72" y2="26.96" xlink:href="#linear-gradient"/>
    <linearGradient id="linear-gradient-32" x1="40.96" y1="26.95" x2="42.66" y2="26.95" xlink:href="#linear-gradient"/>
    <linearGradient id="linear-gradient-33" x1="42.9" y1="26.96" x2="44.05" y2="26.96" xlink:href="#linear-gradient"/>
    <linearGradient id="linear-gradient-34" x1="44.31" y1="26.95" x2="45.33" y2="26.95" xlink:href="#linear-gradient"/>
    <linearGradient id="linear-gradient-35" x1="45.52" y1="26.75" x2="46.13" y2="26.75" xlink:href="#linear-gradient"/>
    <linearGradient id="linear-gradient-36" x1="46.31" y1="26.97" x2="47.32" y2="26.97" xlink:href="#linear-gradient"/>
    <linearGradient id="linear-gradient-37" x1="47.64" y1="26.95" x2="49.34" y2="26.95" xlink:href="#linear-gradient"/>
    <linearGradient id="linear-gradient-38" x1="49.7" y1="27.46" x2="49.95" y2="27.46" xlink:href="#linear-gradient"/>
  </defs>
  <rect class="cls-26" x="48.8" y=".06" width="1.2" height="23.22"/>
  <path class="cls-1" d="M34.18,16.19v7.1h1.2v-6.55c-.39-.19-.79-.37-1.2-.54Z"/>
  <path class="cls-25" d="M36.19,21.51c0-.5,.2-.95,.53-1.27s.78-.53,1.27-.53,.95,.2,1.27,.53,.53,.78,.53,1.27-.2,.95-.53,1.27-.78,.53-1.27,.53-.95-.2-1.27-.53-.53-.78-.53-1.27Z"/>
  <path class="cls-34" d="M18.14,21.28c0-.55,.22-1.06,.59-1.42s.87-.59,1.42-.59,1.06,.22,1.42,.59,.59,.87,.59,1.42-.22,1.06-.59,1.42-.87,.59-1.42,.59-1.06-.22-1.42-.59-.59-.87-.59-1.42Z"/>
  <g>
    <path class="cls-19" d="M12.99,14.1c-3,1.04-5.71,2.47-8.02,4.2-1.96,1.46-3.63,3.14-4.94,4.99H.41c1.14-1.41,2.51-2.7,4.08-3.85,2.51-1.84,5.53-3.31,8.89-4.29l-.4-1.03Z"/>
    <path class="cls-9" d="M44.7,18.3c-5.08-3.8-12.11-6.15-19.87-6.15-3.36,0-6.57,.44-9.56,1.25l.44,1.15c2.38-.51,4.9-.79,7.51-.79,7.32,0,13.94,2.17,18.73,5.68,1.57,1.15,2.94,2.44,4.08,3.85h3.6c-1.31-1.84-2.99-3.52-4.94-4.99Z"/>
  </g>
  <path class="cls-21" d="M16.69,18.69c.07-.51,.3-.96,.64-1.3,.41-.41,.97-.67,1.59-.67,.45,0,.87,.13,1.22,.36L11.62,0,0,23.29H4.02L10.73,4.91h0l.11-.29,.11,.29h0l5.75,13.78Z"/>
  <rect class="cls-35" y="24.26" width="50" height=".8"/>
  <g>
    <path class="cls-23" d="M15.73,27.58h-.23v-1.72h.23v1.72Z"/>
    <path class="cls-13" d="M17.13,27.58h-.21v-.76c0-.13-.02-.22-.07-.26s-.11-.07-.19-.07c-.06,0-.12,.02-.18,.05s-.1,.07-.12,.13-.04,.13-.04,.24v.68h-.21v-1.25h.19v.18h0c.04-.07,.1-.12,.16-.15,.07-.03,.14-.05,.23-.05,.07,0,.13,.01,.19,.04s.11,.06,.15,.11,.06,.1,.07,.15,.01,.13,.01,.22v.77Z"/>
    <path class="cls-12" d="M18.47,27.42c0,.18-.02,.31-.05,.4-.04,.09-.1,.16-.19,.2s-.2,.07-.32,.07c-.14,0-.26-.03-.35-.09-.09-.06-.14-.17-.14-.31l.21,.03c0,.07,.04,.12,.08,.15s.11,.05,.2,.05c.11,0,.19-.02,.24-.07s.08-.1,.09-.16c.01-.06,.02-.15,.02-.27-.09,.11-.21,.16-.35,.16-.16,0-.29-.06-.39-.18s-.15-.27-.15-.45,.05-.34,.14-.46,.23-.18,.4-.18c.15,0,.27,.06,.36,.18h0v-.15h.19v1.08Zm-.54,0c.09,0,.17-.04,.24-.11,.07-.07,.1-.19,.1-.36,0-.15-.03-.26-.1-.34-.07-.08-.15-.12-.25-.12s-.18,.04-.24,.12-.09,.19-.09,.33c0,.16,.03,.28,.1,.36s.15,.11,.24,.11Z"/>
    <path class="cls-36" d="M19.87,27.01h-.93c0,.14,.05,.24,.12,.32,.07,.07,.16,.11,.26,.11,.08,0,.15-.02,.2-.06s.1-.11,.13-.19l.22,.03c-.04,.13-.1,.23-.19,.3s-.21,.1-.35,.1c-.19,0-.33-.06-.44-.17-.11-.11-.16-.27-.16-.47s.05-.36,.15-.48c.1-.12,.25-.18,.43-.18,.09,0,.18,.02,.26,.06s.16,.11,.21,.2c.06,.1,.09,.24,.09,.44Zm-.22-.17c0-.13-.05-.22-.12-.27-.07-.06-.15-.08-.23-.08-.1,0-.18,.03-.25,.1s-.1,.15-.11,.26h.7Z"/>
    <path class="cls-37" d="M21.14,27.58h-.21v-.76c0-.13-.02-.22-.07-.26-.05-.05-.11-.07-.19-.07-.06,0-.12,.02-.18,.05-.06,.03-.1,.07-.12,.13s-.04,.13-.04,.24v.68h-.21v-1.25h.19v.18h0c.04-.07,.1-.12,.16-.15,.07-.03,.14-.05,.23-.05,.07,0,.13,.01,.19,.04s.11,.06,.15,.11c.04,.05,.06,.1,.07,.15s.01,.13,.01,.22v.77Z"/>
    <path class="cls-6" d="M22.47,27.58h-.19v-.18h0c-.1,.14-.23,.21-.39,.21-.09,0-.17-.02-.24-.06-.07-.04-.12-.1-.15-.17-.02-.07-.04-.16-.04-.28v-.77h.21v.69c0,.11,0,.19,.02,.24,.01,.05,.04,.09,.08,.12,.04,.03,.1,.05,.16,.05,.08,0,.15-.03,.23-.08,.07-.06,.11-.17,.11-.34v-.67h.21v1.25Z"/>
    <path class="cls-3" d="M23.01,26.1h-.21v-.24h.21v.24Zm0,1.48h-.21v-1.25h.21v1.25Z"/>
    <path class="cls-15" d="M23.82,27.58c-.06,.01-.12,.02-.16,.02-.09,0-.16-.02-.2-.05-.04-.03-.07-.07-.08-.12s-.01-.12-.01-.21v-.72h-.15v-.16h.15v-.31l.21-.13v.44h.21v.16h-.21v.73c0,.06,0,.11,.02,.13,.01,.03,.05,.04,.1,.04,.03,0,.06,0,.09,0l.03,.19Z"/>
    <path class="cls-2" d="M25.02,26.34l-.48,1.27s0,0,0,0c-.05,.14-.1,.26-.16,.34-.06,.09-.15,.13-.26,.13-.04,0-.08,0-.14-.02l-.02-.2s.08,.02,.12,.02c.08,0,.13-.02,.16-.06s.06-.12,.1-.23l-.47-1.25h.23l.29,.82c.02,.05,.04,.11,.06,.19h0c.02-.09,.04-.18,.08-.26l.27-.75h.21Z"/>
    <path class="cls-4" d="M25.49,27.58h-.24v-.24h.24v.24Z"/>
    <path class="cls-33" d="M26.16,27.58h-.23v-1.72h.23v1.72Z"/>
    <path class="cls-8" d="M27.55,27.58h-.21v-.76c0-.13-.02-.22-.07-.26-.05-.05-.11-.07-.19-.07-.06,0-.12,.02-.18,.05-.06,.03-.1,.07-.12,.13s-.04,.13-.04,.24v.68h-.21v-1.25h.19v.18h0c.04-.07,.1-.12,.16-.15,.07-.03,.14-.05,.23-.05,.07,0,.13,.01,.19,.04s.11,.06,.15,.11c.04,.05,.06,.1,.07,.15s.01,.13,.01,.22v.77Z"/>
    <path class="cls-17" d="M28.89,27.58h-.21v-.76c0-.13-.02-.22-.07-.26-.05-.05-.11-.07-.19-.07-.06,0-.12,.02-.18,.05-.06,.03-.1,.07-.12,.13s-.04,.13-.04,.24v.68h-.21v-1.25h.19v.18h0c.04-.07,.1-.12,.16-.15,.07-.03,.14-.05,.23-.05,.07,0,.13,.01,.19,.04,.06,.02,.11,.06,.15,.11,.04,.05,.06,.1,.07,.15s.01,.13,.01,.22v.77Z"/>
    <path class="cls-24" d="M29.72,26.31c.17,0,.31,.05,.42,.16s.17,.27,.17,.47c0,.24-.06,.42-.18,.52-.12,.1-.25,.15-.4,.15s-.29-.05-.41-.16-.17-.27-.17-.5,.06-.38,.17-.49,.25-.16,.42-.16Zm0,1.13c.12,0,.21-.04,.27-.13s.09-.21,.09-.35c0-.16-.04-.27-.11-.35-.07-.08-.16-.12-.26-.12s-.2,.04-.26,.12-.1,.2-.1,.36,.03,.28,.11,.36,.16,.12,.26,.12Z"/>
    <path class="cls-32" d="M31.56,26.34l-.47,1.25h-.2l-.47-1.25h.22l.26,.72c.05,.14,.08,.23,.09,.28h0c.01-.05,.03-.12,.06-.2l.29-.8h.22Z"/>
    <path class="cls-22" d="M32.83,27.58h-.22s-.03-.09-.04-.15c-.14,.12-.29,.18-.46,.18-.13,0-.24-.03-.31-.1s-.11-.15-.11-.26,.04-.19,.11-.26c.07-.07,.2-.11,.38-.13l.2-.03c.07-.01,.13-.03,.18-.04,0-.06,0-.11,0-.13,0-.03-.02-.05-.03-.08-.02-.03-.05-.05-.09-.07s-.1-.03-.17-.03c-.09,0-.16,.02-.22,.05-.05,.03-.09,.1-.11,.19l-.21-.03c.02-.13,.08-.22,.17-.29s.22-.1,.39-.1c.15,0,.26,.02,.33,.07,.07,.04,.11,.1,.13,.16,.02,.06,.02,.14,.02,.24v.28c0,.17,0,.29,0,.35s.03,.12,.06,.17Zm-.28-.55v-.08c-.11,.04-.25,.07-.4,.09s-.24,.09-.24,.2c0,.06,.02,.1,.06,.14,.04,.04,.1,.06,.19,.06,.1,0,.2-.03,.28-.09,.08-.06,.12-.17,.12-.32Z"/>
    <path class="cls-18" d="M33.57,27.58c-.06,.01-.12,.02-.16,.02-.09,0-.16-.02-.2-.05-.04-.03-.07-.07-.08-.12s-.01-.12-.01-.21v-.72h-.15v-.16h.15v-.31l.21-.13v.44h.21v.16h-.21v.73c0,.06,0,.11,.02,.13,.01,.03,.05,.04,.1,.04,.03,0,.06,0,.09,0l.03,.19Z"/>
    <path class="cls-38" d="M33.96,26.1h-.21v-.24h.21v.24Zm0,1.48h-.21v-1.25h.21v1.25Z"/>
    <path class="cls-27" d="M34.79,26.31c.17,0,.31,.05,.42,.16s.17,.27,.17,.47c0,.24-.06,.42-.18,.52-.12,.1-.25,.15-.4,.15s-.29-.05-.41-.16-.17-.27-.17-.5,.06-.38,.17-.49,.25-.16,.42-.16Zm0,1.13c.12,0,.21-.04,.27-.13s.09-.21,.09-.35c0-.16-.04-.27-.11-.35-.07-.08-.16-.12-.26-.12s-.2,.04-.26,.12c-.07,.08-.1,.2-.1,.36s.03,.28,.11,.36,.16,.12,.26,.12Z"/>
    <path class="cls-5" d="M36.64,27.58h-.21v-.76c0-.13-.02-.22-.07-.26-.05-.05-.11-.07-.19-.07-.06,0-.12,.02-.18,.05-.06,.03-.1,.07-.12,.13s-.04,.13-.04,.24v.68h-.21v-1.25h.19v.18h0c.04-.07,.1-.12,.16-.15,.07-.03,.14-.05,.23-.05,.07,0,.13,.01,.19,.04s.11,.06,.15,.11c.04,.05,.06,.1,.07,.15s.01,.13,.01,.22v.77Z"/>
    <path class="cls-30" d="M37.25,27.58h-.24v-.24h.24v.24Z"/>
    <path class="cls-31" d="M39.29,27.58h-.22v-1.44h0l-.5,1.44h-.2l-.49-1.46h0v1.46h-.22v-1.72h.34l.41,1.22c.05,.14,.07,.22,.08,.25h0c.02-.07,.05-.16,.09-.28l.41-1.2h.3v1.72Z"/>
    <path class="cls-16" d="M40.14,26.31c.17,0,.31,.05,.42,.16s.17,.27,.17,.47c0,.24-.06,.42-.18,.52-.12,.1-.25,.15-.4,.15s-.29-.05-.41-.16-.17-.27-.17-.5,.06-.38,.17-.49,.25-.16,.42-.16Zm0,1.13c.12,0,.21-.04,.27-.13s.09-.21,.09-.35c0-.16-.04-.27-.11-.35-.07-.08-.16-.12-.26-.12s-.2,.04-.26,.12-.1,.2-.1,.36,.03,.28,.11,.36,.16,.12,.26,.12Z"/>
    <path class="cls-11" d="M42.66,27.58h-.21v-.79c0-.06,0-.11-.01-.15,0-.04-.03-.08-.06-.11-.03-.03-.08-.05-.15-.05-.08,0-.15,.03-.21,.09s-.09,.15-.09,.28v.72h-.21v-.81c0-.11-.02-.18-.06-.22s-.09-.06-.16-.06c-.09,0-.17,.03-.22,.09s-.09,.18-.09,.35v.65h-.21v-1.25h.19v.17h0c.08-.13,.21-.2,.37-.2,.09,0,.17,.02,.23,.05,.06,.04,.1,.09,.13,.16,.09-.15,.22-.22,.38-.22,.13,0,.23,.03,.29,.1,.06,.07,.1,.17,.1,.31v.86Z"/>
    <path class="cls-28" d="M44.05,27.01h-.93c0,.14,.05,.24,.12,.32,.07,.07,.16,.11,.26,.11,.08,0,.15-.02,.2-.06s.1-.11,.13-.19l.22,.03c-.04,.13-.1,.23-.19,.3s-.21,.1-.35,.1c-.19,0-.33-.06-.44-.17-.11-.11-.16-.27-.16-.47s.05-.36,.15-.48c.1-.12,.25-.18,.43-.18,.09,0,.18,.02,.26,.06s.16,.11,.21,.2c.06,.1,.09,.24,.09,.44Zm-.22-.17c0-.13-.05-.22-.12-.27-.07-.06-.15-.08-.23-.08-.1,0-.18,.03-.25,.1s-.1,.15-.11,.26h.7Z"/>
    <path class="cls-20" d="M45.33,27.58h-.21v-.76c0-.13-.02-.22-.07-.26-.05-.05-.11-.07-.19-.07-.06,0-.12,.02-.18,.05-.06,.03-.1,.07-.12,.13s-.04,.13-.04,.24v.68h-.21v-1.25h.19v.18h0c.04-.07,.1-.12,.16-.15,.07-.03,.14-.05,.23-.05,.07,0,.13,.01,.19,.04s.11,.06,.15,.11c.04,.05,.06,.1,.07,.15s.01,.13,.01,.22v.77Z"/>
    <path class="cls-10" d="M46.13,27.58c-.06,.01-.12,.02-.16,.02-.09,0-.16-.02-.2-.05-.04-.03-.07-.07-.08-.12s-.01-.12-.01-.21v-.72h-.15v-.16h.15v-.31l.21-.13v.44h.21v.16h-.21v.73c0,.06,0,.11,.02,.13,.01,.03,.05,.04,.1,.04,.03,0,.06,0,.09,0l.03,.19Z"/>
    <path class="cls-7" d="M47.32,27.58h-.19v-.18h0c-.1,.14-.23,.21-.39,.21-.09,0-.17-.02-.24-.06-.07-.04-.12-.1-.15-.17-.02-.07-.04-.16-.04-.28v-.77h.21v.69c0,.11,0,.19,.02,.24,.01,.05,.04,.09,.08,.12,.04,.03,.1,.05,.16,.05,.08,0,.15-.03,.23-.08,.07-.06,.11-.17,.11-.34v-.67h.21v1.25Z"/>
    <path class="cls-14" d="M49.34,27.58h-.21v-.79c0-.06,0-.11-.01-.15,0-.04-.03-.08-.06-.11-.03-.03-.08-.05-.15-.05-.08,0-.15,.03-.21,.09s-.09,.15-.09,.28v.72h-.21v-.81c0-.11-.02-.18-.06-.22s-.09-.06-.16-.06c-.09,0-.17,.03-.22,.09s-.09,.18-.09,.35v.65h-.21v-1.25h.19v.17h0c.08-.13,.21-.2,.37-.2,.09,0,.17,.02,.23,.05,.06,.04,.1,.09,.13,.16,.09-.15,.22-.22,.38-.22,.13,0,.23,.03,.29,.1,.06,.07,.1,.17,.1,.31v.86Z"/>
    <path class="cls-29" d="M49.95,27.58h-.24v-.24h.24v.24Z"/>
  </g>
</svg>