<?xml version="1.0" encoding="UTF-8"?>
<svg xmlns="http://www.w3.org/2000/svg" xmlns:xlink="http://www.w3.org/1999/xlink" viewBox="0 0 114 108">
  <defs>
    <style>
      .cls-1 {
        fill: url(#linear-gradient-2);
      }

      .cls-2 {
        fill: url(#linear-gradient-17);
      }

      .cls-3 {
        fill: url(#linear-gradient-15);
      }

      .cls-4 {
        fill: url(#linear-gradient-18);
      }

      .cls-5 {
        fill: url(#linear-gradient-28);
      }

      .cls-6 {
        fill: url(#linear-gradient-14);
      }

      .cls-7 {
        fill: url(#linear-gradient-36);
      }

      .cls-8 {
        fill: url(#linear-gradient-20);
      }

      .cls-9 {
        fill: url(#linear-gradient-6);
      }

      .cls-10 {
        fill: url(#linear-gradient-35);
      }

      .cls-11 {
        fill: url(#linear-gradient-32);
      }

      .cls-12 {
        fill: url(#linear-gradient-11);
      }

      .cls-13 {
        fill: url(#linear-gradient-10);
      }

      .cls-14 {
        fill: #101010;
      }

      .cls-15 {
        fill: url(#linear-gradient-37);
      }

      .cls-16 {
        fill: url(#linear-gradient-16);
      }

      .cls-17 {
        fill: url(#linear-gradient-31);
      }

      .cls-18 {
        fill: url(#linear-gradient-21);
      }

      .cls-19 {
        fill: url(#linear-gradient-25);
      }

      .cls-20 {
        fill: url(#linear-gradient-5);
      }

      .cls-21 {
        fill: url(#linear-gradient-34);
      }

      .cls-22 {
        fill: url(#linear-gradient-7);
      }

      .cls-23 {
        fill: url(#linear-gradient-24);
      }

      .cls-24 {
        fill: url(#linear-gradient-9);
      }

      .cls-25 {
        fill: url(#linear-gradient-22);
      }

      .cls-26 {
        fill: url(#linear-gradient-3);
      }

      .cls-27 {
        fill: url(#linear-gradient);
      }

      .cls-28 {
        fill: url(#linear-gradient-27);
      }

      .cls-29 {
        fill: url(#linear-gradient-33);
      }

      .cls-30 {
        fill: url(#linear-gradient-38);
      }

      .cls-31 {
        fill: url(#linear-gradient-29);
      }

      .cls-32 {
        fill: url(#linear-gradient-30);
      }

      .cls-33 {
        fill: url(#linear-gradient-23);
      }

      .cls-34 {
        fill: url(#linear-gradient-19);
      }

      .cls-35 {
        fill: url(#linear-gradient-4);
      }

      .cls-36 {
        fill: url(#linear-gradient-8);
      }

      .cls-37 {
        fill: url(#linear-gradient-12);
      }

      .cls-38 {
        fill: url(#linear-gradient-13);
      }

      .cls-39 {
        fill: url(#linear-gradient-26);
      }
    </style>
    <linearGradient id="linear-gradient" x1="106.06" y1="48.06" x2="108.56" y2="48.06" gradientUnits="userSpaceOnUse">
      <stop offset="0" stop-color="#e60234"/>
      <stop offset="1" stop-color="#8b0f32"/>
    </linearGradient>
    <linearGradient id="linear-gradient-2" x1="75.73" y1="64.8" x2="78.23" y2="64.8" xlink:href="#linear-gradient"/>
    <linearGradient id="linear-gradient-3" x1="79.89" y1="68.47" x2="87.37" y2="68.47" xlink:href="#linear-gradient"/>
    <linearGradient id="linear-gradient-4" x1="42.44" y1="68" x2="50.77" y2="68" xlink:href="#linear-gradient"/>
    <linearGradient id="linear-gradient-5" x1="4.82" y1="62.63" x2="32.56" y2="62.63" xlink:href="#linear-gradient"/>
    <linearGradient id="linear-gradient-6" x1="36.49" y1="60.61" x2="107.82" y2="60.61" xlink:href="#linear-gradient"/>
    <linearGradient id="linear-gradient-7" x1="4.78" y1="48" x2="46.57" y2="48" xlink:href="#linear-gradient"/>
    <linearGradient id="linear-gradient-8" x1="4.78" y1="75.02" x2="108.56" y2="75.02" xlink:href="#linear-gradient"/>
    <linearGradient id="linear-gradient-9" x1="36.96" y1="79.3" x2="37.43" y2="79.3" xlink:href="#linear-gradient"/>
    <linearGradient id="linear-gradient-10" x1="38.22" y1="79.76" x2="40.33" y2="79.76" xlink:href="#linear-gradient"/>
    <linearGradient id="linear-gradient-11" x1="40.83" y1="80.28" x2="43.11" y2="80.28" xlink:href="#linear-gradient"/>
    <linearGradient id="linear-gradient-12" x1="43.63" y1="79.79" x2="46.01" y2="79.79" xlink:href="#linear-gradient"/>
    <linearGradient id="linear-gradient-13" x1="46.55" y1="79.76" x2="48.66" y2="79.76" xlink:href="#linear-gradient"/>
    <linearGradient id="linear-gradient-14" x1="49.31" y1="79.82" x2="51.41" y2="79.82" xlink:href="#linear-gradient"/>
    <linearGradient id="linear-gradient-15" x1="52.09" y1="79.3" x2="52.53" y2="79.3" xlink:href="#linear-gradient"/>
    <linearGradient id="linear-gradient-16" x1="52.95" y1="79.35" x2="54.21" y2="79.35" xlink:href="#linear-gradient"/>
    <linearGradient id="linear-gradient-17" x1="54.33" y1="80.31" x2="56.71" y2="80.31" xlink:href="#linear-gradient"/>
    <linearGradient id="linear-gradient-18" x1="57.19" y1="80.83" x2="57.69" y2="80.83" xlink:href="#linear-gradient"/>
    <linearGradient id="linear-gradient-19" x1="58.59" y1="79.3" x2="59.07" y2="79.3" xlink:href="#linear-gradient"/>
    <linearGradient id="linear-gradient-20" x1="59.86" y1="79.76" x2="61.97" y2="79.76" xlink:href="#linear-gradient"/>
    <linearGradient id="linear-gradient-21" x1="62.63" y1="79.76" x2="64.74" y2="79.76" xlink:href="#linear-gradient"/>
    <linearGradient id="linear-gradient-22" x1="65.25" y1="79.79" x2="67.67" y2="79.79" xlink:href="#linear-gradient"/>
    <linearGradient id="linear-gradient-23" x1="67.91" y1="79.79" x2="70.28" y2="79.79" xlink:href="#linear-gradient"/>
    <linearGradient id="linear-gradient-24" x1="70.53" y1="79.79" x2="72.92" y2="79.79" xlink:href="#linear-gradient"/>
    <linearGradient id="linear-gradient-25" x1="73.2" y1="79.35" x2="74.46" y2="79.35" xlink:href="#linear-gradient"/>
    <linearGradient id="linear-gradient-26" x1="74.84" y1="79.3" x2="75.27" y2="79.3" xlink:href="#linear-gradient"/>
    <linearGradient id="linear-gradient-27" x1="75.79" y1="79.79" x2="78.21" y2="79.79" xlink:href="#linear-gradient"/>
    <linearGradient id="linear-gradient-28" x1="78.72" y1="79.76" x2="80.83" y2="79.76" xlink:href="#linear-gradient"/>
    <linearGradient id="linear-gradient-29" x1="81.6" y1="80.83" x2="82.1" y2="80.83" xlink:href="#linear-gradient"/>
    <linearGradient id="linear-gradient-30" x1="82.93" y1="79.3" x2="86.32" y2="79.3" xlink:href="#linear-gradient"/>
    <linearGradient id="linear-gradient-31" x1="86.88" y1="79.79" x2="89.3" y2="79.79" xlink:href="#linear-gradient"/>
    <linearGradient id="linear-gradient-32" x1="89.8" y1="79.76" x2="93.31" y2="79.76" xlink:href="#linear-gradient"/>
    <linearGradient id="linear-gradient-33" x1="93.83" y1="79.79" x2="96.21" y2="79.79" xlink:href="#linear-gradient"/>
    <linearGradient id="linear-gradient-34" x1="96.75" y1="79.76" x2="98.86" y2="79.76" xlink:href="#linear-gradient"/>
    <linearGradient id="linear-gradient-35" x1="99.27" y1="79.35" x2="100.53" y2="79.35" xlink:href="#linear-gradient"/>
    <linearGradient id="linear-gradient-36" x1="100.9" y1="79.82" x2="103" y2="79.82" xlink:href="#linear-gradient"/>
    <linearGradient id="linear-gradient-37" x1="103.67" y1="79.76" x2="107.18" y2="79.76" xlink:href="#linear-gradient"/>
    <linearGradient id="linear-gradient-38" x1="107.94" y1="80.83" x2="108.44" y2="80.83" xlink:href="#linear-gradient"/>
  </defs>
  <g id="Layer_2" data-name="Layer 2">
    <rect class="cls-14" width="114" height="108"/>
  </g>
  <g id="Layer_1" data-name="Layer 1">
    <rect class="cls-27" x="106.06" y="23.96" width="2.49" height="48.21"/>
    <path class="cls-1" d="M75.73,57.43v14.73h2.49v-13.61c-.82-.4-1.65-.78-2.49-1.12Z"/>
    <path class="cls-26" d="M79.89,68.47c0-1.03,.42-1.97,1.1-2.65s1.61-1.1,2.65-1.1,1.97,.42,2.65,1.1,1.1,1.61,1.1,2.65-.42,1.97-1.1,2.65-1.61,1.1-2.65,1.1-1.97-.42-2.65-1.1-1.1-1.61-1.1-2.65Z"/>
    <path class="cls-35" d="M42.44,68c0-1.15,.47-2.19,1.22-2.95s1.8-1.22,2.95-1.22,2.19,.47,2.95,1.22,1.22,1.8,1.22,2.95-.47,2.19-1.22,2.95-1.8,1.22-2.95,1.22-2.19-.47-2.95-1.22-1.22-1.8-1.22-2.95Z"/>
    <g>
      <path class="cls-20" d="M31.73,53.1c-6.22,2.17-11.85,5.13-16.65,8.71-4.07,3.04-7.53,6.52-10.26,10.35h.81c2.36-2.92,5.21-5.61,8.47-8,5.22-3.82,11.48-6.87,18.45-8.91l-.82-2.15Z"/>
      <path class="cls-9" d="M97.56,61.81c-10.55-7.89-25.13-12.76-41.24-12.76-6.96,0-13.64,.91-19.83,2.59l.91,2.38c4.94-1.07,10.18-1.64,15.59-1.64,15.19,0,28.93,4.5,38.88,11.79,3.26,2.39,6.11,5.07,8.47,8h7.47c-2.73-3.83-6.2-7.31-10.26-10.35Z"/>
    </g>
    <path class="cls-22" d="M39.42,62.62c.14-1.05,.62-1.99,1.32-2.7,.85-.86,2.01-1.39,3.3-1.39,.93,0,1.8,.28,2.52,.75L28.89,23.83,4.78,72.16H13.11l13.93-38.15h0l.23-.61,.23,.61h-.01l11.94,28.6Z"/>
    <rect class="cls-36" x="4.78" y="74.18" width="103.78" height="1.66"/>
    <g>
      <path class="cls-24" d="M37.43,81.08h-.48v-3.57h.48v3.57Z"/>
      <path class="cls-13" d="M40.33,81.08h-.44v-1.57c0-.26-.05-.45-.14-.55s-.23-.15-.4-.15c-.13,0-.25,.03-.37,.1s-.2,.15-.25,.27-.07,.28-.07,.49v1.41h-.44v-2.58h.39v.37h0c.09-.14,.21-.25,.34-.32,.14-.07,.29-.11,.47-.11,.14,0,.27,.02,.4,.07s.24,.12,.31,.22,.12,.2,.14,.31,.03,.26,.03,.45v1.59Z"/>
      <path class="cls-12" d="M43.11,80.73c0,.37-.04,.64-.11,.82-.07,.18-.2,.32-.39,.42s-.41,.15-.67,.15c-.29,0-.54-.06-.73-.19-.19-.13-.29-.34-.29-.64l.43,.07c.02,.14,.07,.24,.17,.31s.24,.1,.42,.1c.23,0,.39-.05,.5-.14s.17-.21,.19-.34c.02-.13,.04-.32,.04-.55-.19,.23-.43,.34-.72,.34-.34,0-.61-.12-.81-.37s-.31-.56-.31-.94,.1-.7,.3-.95,.47-.38,.82-.38c.31,0,.55,.12,.75,.37h0v-.31h.4v2.24Zm-1.12,0c.19,0,.35-.07,.5-.22,.14-.15,.22-.4,.22-.75,0-.31-.07-.55-.21-.71-.14-.16-.31-.25-.51-.25s-.38,.08-.51,.25-.2,.4-.2,.69c0,.34,.07,.59,.21,.74s.3,.24,.5,.24Z"/>
      <path class="cls-37" d="M46.01,79.9h-1.94c.02,.29,.1,.5,.24,.66,.15,.15,.33,.23,.54,.23,.17,0,.31-.04,.42-.13s.2-.22,.26-.4l.45,.06c-.07,.27-.21,.48-.4,.62s-.44,.22-.73,.22c-.39,0-.69-.12-.91-.36-.22-.24-.33-.56-.33-.98s.11-.74,.32-.99c.21-.25,.51-.38,.9-.38,.19,0,.37,.04,.54,.12s.32,.22,.44,.42c.12,.2,.18,.5,.18,.91Zm-.45-.36c-.02-.26-.1-.45-.24-.57-.15-.12-.3-.17-.48-.17-.21,0-.38,.07-.51,.21s-.21,.32-.23,.54h1.46Z"/>
      <path class="cls-38" d="M48.66,81.08h-.44v-1.57c0-.26-.05-.45-.14-.55-.1-.1-.23-.15-.4-.15-.13,0-.25,.03-.37,.1-.12,.06-.2,.15-.25,.27s-.07,.28-.07,.49v1.41h-.44v-2.58h.39v.37h0c.09-.14,.21-.25,.34-.32,.14-.07,.29-.11,.47-.11,.14,0,.27,.02,.4,.07s.24,.12,.31,.22c.08,.1,.12,.2,.14,.31s.03,.26,.03,.45v1.59Z"/>
      <path class="cls-6" d="M51.41,81.08h-.39v-.38h-.01c-.2,.29-.47,.44-.81,.44-.18,0-.35-.04-.5-.13-.15-.08-.26-.2-.31-.35-.05-.15-.08-.34-.08-.57v-1.6h.44v1.43c0,.23,.01,.39,.03,.49,.02,.1,.08,.18,.17,.24,.09,.06,.2,.1,.33,.1,.17,0,.32-.06,.47-.17,.15-.11,.22-.35,.22-.71v-1.38h.44v2.58Z"/>
      <path class="cls-3" d="M52.53,78.01h-.44v-.5h.44v.5Zm0,3.07h-.44v-2.58h.44v2.58Z"/>
      <path class="cls-16" d="M54.21,81.08c-.13,.03-.24,.04-.33,.04-.19,0-.33-.03-.42-.1-.09-.07-.14-.15-.16-.26s-.03-.25-.03-.43v-1.49h-.32v-.34h.32v-.64l.44-.27v.91h.44v.34h-.44v1.51c0,.13,.01,.22,.04,.28,.03,.05,.09,.08,.2,.08,.06,0,.13,0,.19-.02l.06,.39Z"/>
      <path class="cls-2" d="M56.71,78.5l-.99,2.63s0,0,0,.02c-.09,.29-.2,.53-.33,.71-.13,.18-.31,.27-.54,.27-.08,0-.17-.02-.29-.05l-.04-.41c.08,.03,.17,.04,.25,.04,.16,0,.27-.04,.34-.13s.13-.25,.21-.48l-.98-2.59h.47l.61,1.69c.04,.1,.07,.24,.11,.4h0c.04-.19,.09-.37,.16-.54l.57-1.56h.45Z"/>
      <path class="cls-4" d="M57.69,81.08h-.5v-.5h.5v.5Z"/>
      <path class="cls-34" d="M59.07,81.08h-.48v-3.57h.48v3.57Z"/>
      <path class="cls-8" d="M61.97,81.08h-.44v-1.57c0-.26-.05-.45-.14-.55-.1-.1-.23-.15-.4-.15-.13,0-.25,.03-.37,.1-.12,.06-.2,.15-.25,.27s-.07,.28-.07,.49v1.41h-.44v-2.58h.39v.37h0c.09-.14,.21-.25,.34-.32,.14-.07,.29-.11,.47-.11,.14,0,.27,.02,.4,.07s.24,.12,.31,.22c.08,.1,.12,.2,.14,.31s.03,.26,.03,.45v1.59Z"/>
      <path class="cls-18" d="M64.74,81.08h-.44v-1.57c0-.26-.05-.45-.14-.55-.1-.1-.23-.15-.4-.15-.13,0-.25,.03-.37,.1-.12,.06-.2,.15-.25,.27s-.07,.28-.07,.49v1.41h-.44v-2.58h.39v.37h0c.09-.14,.21-.25,.34-.32,.14-.07,.29-.11,.47-.11,.14,0,.27,.02,.4,.07,.13,.05,.24,.12,.31,.22,.08,.1,.12,.2,.14,.31s.03,.26,.03,.45v1.59Z"/>
      <path class="cls-25" d="M66.46,78.44c.35,0,.64,.11,.87,.34s.34,.55,.34,.97c0,.51-.12,.87-.37,1.08-.25,.21-.53,.32-.84,.32s-.61-.11-.85-.32-.36-.56-.36-1.03,.12-.79,.35-1.02,.52-.34,.86-.34Zm0,2.34c.25,0,.44-.09,.57-.28s.19-.43,.19-.73c0-.32-.07-.57-.22-.73-.15-.16-.33-.25-.54-.25s-.41,.08-.55,.25-.21,.41-.21,.74,.07,.58,.22,.74,.33,.25,.54,.25Z"/>
      <path class="cls-33" d="M70.28,78.5l-.98,2.58h-.41l-.98-2.58h.46l.53,1.5c.1,.28,.16,.47,.18,.57h0c.03-.1,.07-.24,.13-.42l.6-1.65h.45Z"/>
      <path class="cls-23" d="M72.92,81.08h-.46c-.04-.08-.07-.19-.09-.32-.29,.25-.61,.38-.95,.38-.27,0-.49-.07-.65-.2s-.24-.32-.24-.54,.08-.39,.23-.53c.15-.14,.42-.23,.79-.28l.41-.06c.15-.02,.28-.05,.38-.09,0-.13,0-.22-.01-.28,0-.05-.03-.11-.07-.17-.04-.06-.1-.11-.19-.14s-.21-.05-.35-.05c-.19,0-.34,.03-.45,.1-.11,.07-.18,.2-.23,.39l-.43-.06c.05-.26,.17-.46,.36-.6s.46-.2,.8-.2c.31,0,.54,.05,.68,.14,.15,.09,.23,.2,.27,.33,.03,.13,.05,.3,.05,.5v.59c0,.36,0,.6,.02,.72s.05,.24,.12,.36Zm-.58-1.14v-.16c-.23,.08-.51,.14-.84,.18s-.5,.18-.5,.42c0,.12,.04,.22,.13,.29,.09,.08,.22,.12,.38,.12,.22,0,.41-.06,.57-.19,.16-.13,.25-.35,.25-.66Z"/>
      <path class="cls-19" d="M74.46,81.08c-.13,.03-.24,.04-.33,.04-.19,0-.33-.03-.42-.1-.09-.07-.14-.15-.16-.26s-.03-.25-.03-.43v-1.49h-.32v-.34h.32v-.64l.44-.27v.91h.44v.34h-.44v1.51c0,.13,.01,.22,.04,.28,.03,.05,.09,.08,.2,.08,.06,0,.13,0,.19-.02l.06,.39Z"/>
      <path class="cls-39" d="M75.27,78.01h-.44v-.5h.44v.5Zm0,3.07h-.44v-2.58h.44v2.58Z"/>
      <path class="cls-28" d="M77,78.44c.35,0,.64,.11,.87,.34s.34,.55,.34,.97c0,.51-.12,.87-.37,1.08-.25,.21-.53,.32-.84,.32s-.61-.11-.85-.32-.36-.56-.36-1.03,.12-.79,.35-1.02,.52-.34,.86-.34Zm0,2.34c.25,0,.44-.09,.57-.28s.19-.43,.19-.73c0-.32-.07-.57-.22-.73-.15-.16-.33-.25-.54-.25s-.41,.08-.55,.25c-.14,.17-.21,.41-.21,.74s.07,.58,.22,.74,.33,.25,.54,.25Z"/>
      <path class="cls-5" d="M80.83,81.08h-.44v-1.57c0-.26-.05-.45-.14-.55-.1-.1-.23-.15-.4-.15-.13,0-.25,.03-.37,.1-.12,.06-.2,.15-.25,.27s-.07,.28-.07,.49v1.41h-.44v-2.58h.39v.37h0c.09-.14,.21-.25,.34-.32,.14-.07,.29-.11,.47-.11,.14,0,.27,.02,.4,.07s.24,.12,.31,.22c.08,.1,.12,.2,.14,.31s.03,.26,.03,.45v1.59Z"/>
      <path class="cls-31" d="M82.1,81.08h-.5v-.5h.5v.5Z"/>
      <path class="cls-32" d="M86.32,81.08h-.45v-2.99h0l-1.03,2.99h-.42l-1.02-3.04h-.01v3.04h-.45v-3.57h.71l.85,2.53c.09,.28,.15,.46,.16,.53h0c.04-.14,.11-.33,.19-.57l.85-2.49h.63v3.57Z"/>
      <path class="cls-17" d="M88.09,78.44c.35,0,.64,.11,.87,.34s.34,.55,.34,.97c0,.51-.12,.87-.37,1.08-.25,.21-.53,.32-.84,.32s-.61-.11-.85-.32-.36-.56-.36-1.03,.12-.79,.35-1.02,.52-.34,.86-.34Zm0,2.34c.25,0,.44-.09,.57-.28s.19-.43,.19-.73c0-.32-.07-.57-.22-.73-.15-.16-.33-.25-.54-.25s-.41,.08-.55,.25-.21,.41-.21,.74,.07,.58,.22,.74,.33,.25,.54,.25Z"/>
      <path class="cls-11" d="M93.31,81.08h-.44v-1.63c0-.12,0-.22-.02-.31-.02-.09-.06-.16-.13-.23-.07-.07-.17-.1-.32-.1-.17,0-.32,.06-.45,.18s-.19,.32-.19,.58v1.5h-.44v-1.68c0-.22-.04-.38-.12-.46s-.19-.12-.33-.12c-.19,0-.34,.06-.46,.19s-.18,.37-.18,.73v1.34h-.44v-2.58h.39v.36h0c.18-.28,.43-.42,.77-.42,.19,0,.35,.04,.47,.11,.12,.08,.21,.19,.27,.34,.19-.3,.46-.45,.8-.45,.27,0,.47,.07,.6,.22,.13,.14,.2,.36,.2,.65v1.78Z"/>
      <path class="cls-29" d="M96.21,79.9h-1.94c.02,.29,.1,.5,.24,.66,.15,.15,.33,.23,.54,.23,.17,0,.31-.04,.42-.13s.2-.22,.26-.4l.45,.06c-.07,.27-.21,.48-.4,.62s-.44,.22-.73,.22c-.39,0-.69-.12-.91-.36-.22-.24-.33-.56-.33-.98s.11-.74,.32-.99c.21-.25,.51-.38,.9-.38,.19,0,.37,.04,.54,.12s.32,.22,.44,.42c.12,.2,.18,.5,.18,.91Zm-.45-.36c-.02-.26-.1-.45-.24-.57-.15-.12-.3-.17-.48-.17-.21,0-.38,.07-.51,.21s-.21,.32-.23,.54h1.46Z"/>
      <path class="cls-21" d="M98.86,81.08h-.44v-1.57c0-.26-.05-.45-.14-.55-.1-.1-.23-.15-.4-.15-.13,0-.25,.03-.37,.1-.12,.06-.2,.15-.25,.27s-.07,.28-.07,.49v1.41h-.44v-2.58h.39v.37h0c.09-.14,.21-.25,.34-.32,.14-.07,.29-.11,.47-.11,.14,0,.27,.02,.4,.07s.24,.12,.31,.22c.08,.1,.12,.2,.14,.31s.03,.26,.03,.45v1.59Z"/>
      <path class="cls-10" d="M100.53,81.08c-.13,.03-.24,.04-.33,.04-.19,0-.33-.03-.42-.1-.09-.07-.14-.15-.16-.26s-.03-.25-.03-.43v-1.49h-.32v-.34h.32v-.64l.44-.27v.91h.44v.34h-.44v1.51c0,.13,.01,.22,.04,.28,.03,.05,.09,.08,.2,.08,.06,0,.13,0,.19-.02l.06,.39Z"/>
      <path class="cls-7" d="M103,81.08h-.39v-.38h-.01c-.2,.29-.47,.44-.81,.44-.18,0-.35-.04-.5-.13-.15-.08-.26-.2-.31-.35-.05-.15-.08-.34-.08-.57v-1.6h.44v1.43c0,.23,.01,.39,.03,.49,.02,.1,.08,.18,.17,.24,.09,.06,.2,.1,.33,.1,.17,0,.32-.06,.47-.17,.15-.11,.22-.35,.22-.71v-1.38h.44v2.58Z"/>
      <path class="cls-15" d="M107.18,81.08h-.44v-1.63c0-.12,0-.22-.02-.31-.02-.09-.06-.16-.13-.23-.07-.07-.17-.1-.32-.1-.17,0-.32,.06-.45,.18s-.19,.32-.19,.58v1.5h-.44v-1.68c0-.22-.04-.38-.12-.46s-.19-.12-.33-.12c-.19,0-.34,.06-.46,.19s-.18,.37-.18,.73v1.34h-.44v-2.58h.39v.36h0c.18-.28,.43-.42,.77-.42,.19,0,.35,.04,.47,.11,.12,.08,.21,.19,.27,.34,.19-.3,.46-.45,.8-.45,.27,0,.47,.07,.6,.22,.13,.14,.2,.36,.2,.65v1.78Z"/>
      <path class="cls-30" d="M108.44,81.08h-.5v-.5h.5v.5Z"/>
    </g>
  </g>
</svg>