<?xml version="1.0" encoding="UTF-8"?>
<svg id="Layer_1" data-name="Layer 1" xmlns="http://www.w3.org/2000/svg" viewBox="0 0 100 22.74">
  <defs>
    <style>
      .cls-1 {
        fill: none;
        letter-spacing: -.09em;
        stroke: #e2e2e2;
        stroke-miterlimit: 10;
      }

      .cls-2 {
        fill: #e2e2e2;
        letter-spacing: -.09em;
      }

      .cls-3 {
        font-family: MyriadPro-Regular, 'Myriad Pro';
        font-size: 13.53px;
      }

      .cls-4 {
        fill: #101010;
      }
    </style>
  </defs>
  <rect class="cls-4" x="30.82" y=".04" width=".76" height="14.67"/>
  <path class="cls-4" d="M21.59,10.22v4.48h.76v-4.14c-.25-.12-.5-.24-.76-.34Z"/>
  <path class="cls-4" d="M22.85,13.58c0-.31,.13-.6,.33-.81s.49-.33,.81-.33,.6,.13,.81,.33,.33,.49,.33,.81-.13,.6-.33,.81-.49,.33-.81,.33-.6-.13-.81-.33-.33-.49-.33-.81Z"/>
  <path class="cls-4" d="M11.46,13.44c0-.35,.14-.67,.37-.9s.55-.37,.9-.37,.67,.14,.9,.37,.37,.55,.37,.9-.14,.67-.37,.9-.55,.37-.9,.37-.67-.14-.9-.37-.37-.55-.37-.9Z"/>
  <g>
    <path class="cls-4" d="M8.2,8.91c-1.89,.66-3.61,1.56-5.07,2.65C1.9,12.48,.84,13.54,.01,14.71h.25c.72-.89,1.59-1.71,2.58-2.43,1.59-1.16,3.49-2.09,5.61-2.71l-.25-.65Z"/>
    <path class="cls-4" d="M28.23,11.56c-3.21-2.4-7.65-3.88-12.55-3.88-2.12,0-4.15,.28-6.03,.79l.28,.73c1.5-.33,3.1-.5,4.74-.5,4.62,0,8.8,1.37,11.83,3.59,.99,.73,1.86,1.54,2.58,2.43h2.27c-.83-1.16-1.89-2.22-3.12-3.15Z"/>
  </g>
  <path class="cls-4" d="M10.54,11.8c.04-.32,.19-.6,.4-.82,.26-.26,.61-.42,1-.42,.28,0,.55,.08,.77,.23L7.34,0,0,14.71H2.54L6.78,3.1h0l.07-.19,.07,.19h0l3.63,8.7Z"/>
  <rect class="cls-4" y="15.32" width="31.58" height=".51"/>
  <g>
    <path class="cls-4" d="M9.94,17.42h-.14v-1.09h.14v1.09Z"/>
    <path class="cls-4" d="M10.82,17.42h-.13v-.48c0-.08-.01-.14-.04-.17s-.07-.05-.12-.05c-.04,0-.08,0-.11,.03s-.06,.05-.08,.08-.02,.08-.02,.15v.43h-.13v-.79h.12v.11h0s.06-.08,.1-.1c.04-.02,.09-.03,.14-.03,.04,0,.08,0,.12,.02s.07,.04,.1,.07,.04,.06,.04,.09,0,.08,0,.14v.48Z"/>
    <path class="cls-4" d="M11.66,17.31c0,.11-.01,.2-.03,.25-.02,.06-.06,.1-.12,.13s-.12,.05-.2,.05c-.09,0-.16-.02-.22-.06-.06-.04-.09-.1-.09-.19l.13,.02s.02,.07,.05,.09,.07,.03,.13,.03c.07,0,.12-.01,.15-.04s.05-.06,.06-.1c0-.04,.01-.1,.01-.17-.06,.07-.13,.1-.22,.1-.1,0-.18-.04-.25-.11s-.09-.17-.09-.29,.03-.21,.09-.29,.14-.12,.25-.12c.09,0,.17,.04,.23,.11h0v-.09h.12v.68Zm-.34,0c.06,0,.11-.02,.15-.07,.04-.05,.07-.12,.07-.23,0-.09-.02-.17-.06-.22-.04-.05-.09-.08-.16-.08s-.11,.03-.15,.08-.06,.12-.06,.21c0,.1,.02,.18,.06,.23s.09,.07,.15,.07Z"/>
    <path class="cls-4" d="M12.55,17.06h-.59c0,.09,.03,.15,.07,.2,.04,.05,.1,.07,.17,.07,.05,0,.09-.01,.13-.04s.06-.07,.08-.12l.14,.02c-.02,.08-.06,.15-.12,.19s-.13,.07-.22,.07c-.12,0-.21-.04-.28-.11-.07-.07-.1-.17-.1-.3s.03-.22,.1-.3c.06-.08,.16-.12,.27-.12,.06,0,.11,.01,.17,.04s.1,.07,.14,.13c.04,.06,.06,.15,.06,.28Zm-.14-.11c0-.08-.03-.14-.07-.17-.04-.04-.09-.05-.14-.05-.06,0-.11,.02-.15,.06s-.06,.1-.07,.16h.44Z"/>
    <path class="cls-4" d="M13.35,17.42h-.13v-.48c0-.08-.01-.14-.04-.17-.03-.03-.07-.05-.12-.05-.04,0-.08,0-.11,.03-.04,.02-.06,.05-.08,.08s-.02,.08-.02,.15v.43h-.13v-.79h.12v.11h0s.06-.08,.1-.1c.04-.02,.09-.03,.14-.03,.04,0,.08,0,.12,.02s.07,.04,.1,.07c.02,.03,.04,.06,.04,.09s0,.08,0,.14v.48Z"/>
    <path class="cls-4" d="M14.19,17.42h-.12v-.12h0c-.06,.09-.14,.13-.25,.13-.05,0-.11-.01-.15-.04-.05-.03-.08-.06-.09-.11-.02-.04-.02-.1-.02-.17v-.49h.13v.44c0,.07,0,.12,.01,.15,0,.03,.02,.06,.05,.07,.03,.02,.06,.03,.1,.03,.05,0,.1-.02,.14-.05,.04-.03,.07-.11,.07-.22v-.42h.13v.79Z"/>
    <path class="cls-4" d="M14.53,16.48h-.13v-.15h.13v.15Zm0,.94h-.13v-.79h.13v.79Z"/>
    <path class="cls-4" d="M15.04,17.42s-.07,.01-.1,.01c-.06,0-.1-.01-.13-.03-.03-.02-.04-.05-.05-.08s0-.08,0-.13v-.45h-.1v-.1h.1v-.2l.13-.08v.28h.13v.1h-.13v.46s0,.07,.01,.08c0,.02,.03,.02,.06,.02,.02,0,.04,0,.06,0l.02,.12Z"/>
    <path class="cls-4" d="M15.8,16.63l-.3,.8s0,0,0,0c-.03,.09-.06,.16-.1,.22-.04,.06-.09,.08-.16,.08-.02,0-.05,0-.09-.01v-.13s.04,.01,.06,.01c.05,0,.08-.01,.1-.04s.04-.08,.06-.15l-.3-.79h.14l.19,.52s.02,.07,.03,.12h0c.01-.06,.03-.11,.05-.16l.17-.47h.14Z"/>
    <path class="cls-4" d="M16.1,17.42h-.15v-.15h.15v.15Z"/>
    <path class="cls-4" d="M16.52,17.42h-.14v-1.09h.14v1.09Z"/>
    <path class="cls-4" d="M17.4,17.42h-.13v-.48c0-.08-.01-.14-.04-.17-.03-.03-.07-.05-.12-.05-.04,0-.08,0-.11,.03-.04,.02-.06,.05-.08,.08s-.02,.08-.02,.15v.43h-.13v-.79h.12v.11h0s.06-.08,.1-.1c.04-.02,.09-.03,.14-.03,.04,0,.08,0,.12,.02s.07,.04,.1,.07c.02,.03,.04,.06,.04,.09s0,.08,0,.14v.48Z"/>
    <path class="cls-4" d="M18.25,17.42h-.13v-.48c0-.08-.01-.14-.04-.17-.03-.03-.07-.05-.12-.05-.04,0-.08,0-.11,.03-.04,.02-.06,.05-.08,.08s-.02,.08-.02,.15v.43h-.13v-.79h.12v.11h0s.06-.08,.1-.1c.04-.02,.09-.03,.14-.03,.04,0,.08,0,.12,.02,.04,.01,.07,.04,.1,.07,.02,.03,.04,.06,.04,.09s0,.08,0,.14v.48Z"/>
    <path class="cls-4" d="M18.77,16.62c.11,0,.19,.03,.26,.1s.1,.17,.1,.3c0,.15-.04,.26-.11,.33-.08,.06-.16,.1-.26,.1s-.19-.03-.26-.1-.11-.17-.11-.31,.04-.24,.11-.31,.16-.1,.26-.1Zm0,.71c.08,0,.13-.03,.17-.08s.06-.13,.06-.22c0-.1-.02-.17-.07-.22-.04-.05-.1-.07-.17-.07s-.12,.03-.17,.08-.07,.13-.07,.23,.02,.18,.07,.23,.1,.08,.17,.08Z"/>
    <path class="cls-4" d="M19.93,16.63l-.3,.79h-.12l-.3-.79h.14l.16,.46c.03,.09,.05,.14,.05,.17h0s.02-.07,.04-.13l.18-.5h.14Z"/>
    <path class="cls-4" d="M20.73,17.42h-.14s-.02-.06-.03-.1c-.09,.08-.19,.12-.29,.12-.08,0-.15-.02-.2-.06s-.07-.1-.07-.16,.02-.12,.07-.16c.05-.04,.13-.07,.24-.08l.12-.02s.08-.02,.11-.03c0-.04,0-.07,0-.08,0-.02,0-.03-.02-.05-.01-.02-.03-.03-.06-.04s-.06-.02-.11-.02c-.06,0-.1,.01-.14,.03-.03,.02-.06,.06-.07,.12l-.13-.02c.01-.08,.05-.14,.11-.18s.14-.06,.24-.06c.09,0,.16,.01,.21,.04,.04,.03,.07,.06,.08,.1,.01,.04,.02,.09,.02,.15v.18c0,.11,0,.18,0,.22s.02,.07,.04,.11Zm-.18-.35v-.05c-.07,.02-.15,.04-.26,.06s-.15,.06-.15,.13c0,.04,.01,.07,.04,.09,.03,.02,.07,.04,.12,.04,.07,0,.12-.02,.17-.06,.05-.04,.08-.11,.08-.2Z"/>
    <path class="cls-4" d="M21.2,17.42s-.07,.01-.1,.01c-.06,0-.1-.01-.13-.03-.03-.02-.04-.05-.05-.08s0-.08,0-.13v-.45h-.1v-.1h.1v-.2l.13-.08v.28h.13v.1h-.13v.46s0,.07,.01,.08c0,.02,.03,.02,.06,.02,.02,0,.04,0,.06,0l.02,.12Z"/>
    <path class="cls-4" d="M21.45,16.48h-.13v-.15h.13v.15Zm0,.94h-.13v-.79h.13v.79Z"/>
    <path class="cls-4" d="M21.97,16.62c.11,0,.19,.03,.26,.1s.1,.17,.1,.3c0,.15-.04,.26-.11,.33-.08,.06-.16,.1-.26,.1s-.19-.03-.26-.1-.11-.17-.11-.31,.04-.24,.11-.31,.16-.1,.26-.1Zm0,.71c.08,0,.13-.03,.17-.08s.06-.13,.06-.22c0-.1-.02-.17-.07-.22-.04-.05-.1-.07-.17-.07s-.12,.03-.17,.08c-.04,.05-.07,.13-.07,.23s.02,.18,.07,.23,.1,.08,.17,.08Z"/>
    <path class="cls-4" d="M23.14,17.42h-.13v-.48c0-.08-.01-.14-.04-.17-.03-.03-.07-.05-.12-.05-.04,0-.08,0-.11,.03-.04,.02-.06,.05-.08,.08s-.02,.08-.02,.15v.43h-.13v-.79h.12v.11h0s.06-.08,.1-.1c.04-.02,.09-.03,.14-.03,.04,0,.08,0,.12,.02s.07,.04,.1,.07c.02,.03,.04,.06,.04,.09s0,.08,0,.14v.48Z"/>
    <path class="cls-4" d="M23.53,17.42h-.15v-.15h.15v.15Z"/>
    <path class="cls-4" d="M24.81,17.42h-.14v-.91h0l-.31,.91h-.13l-.31-.92h0v.92h-.14v-1.09h.21l.26,.77c.03,.09,.05,.14,.05,.16h0s.03-.1,.06-.17l.26-.76h.19v1.09Z"/>
    <path class="cls-4" d="M25.35,16.62c.11,0,.19,.03,.26,.1s.1,.17,.1,.3c0,.15-.04,.26-.11,.33-.08,.06-.16,.1-.26,.1s-.19-.03-.26-.1-.11-.17-.11-.31,.04-.24,.11-.31,.16-.1,.26-.1Zm0,.71c.08,0,.13-.03,.17-.08s.06-.13,.06-.22c0-.1-.02-.17-.07-.22-.04-.05-.1-.07-.17-.07s-.12,.03-.17,.08-.07,.13-.07,.23,.02,.18,.07,.23,.1,.08,.17,.08Z"/>
    <path class="cls-4" d="M26.94,17.42h-.13v-.5s0-.07,0-.09c0-.03-.02-.05-.04-.07-.02-.02-.05-.03-.1-.03-.05,0-.1,.02-.14,.05s-.06,.1-.06,.18v.46h-.13v-.51c0-.07-.01-.11-.04-.14s-.06-.04-.1-.04c-.06,0-.1,.02-.14,.06s-.06,.11-.06,.22v.41h-.13v-.79h.12v.11h0c.05-.08,.13-.13,.23-.13,.06,0,.11,.01,.14,.03,.04,.02,.06,.06,.08,.1,.06-.09,.14-.14,.24-.14,.08,0,.14,.02,.18,.07,.04,.04,.06,.11,.06,.2v.54Z"/>
    <path class="cls-4" d="M27.82,17.06h-.59c0,.09,.03,.15,.07,.2,.04,.05,.1,.07,.17,.07,.05,0,.09-.01,.13-.04s.06-.07,.08-.12l.14,.02c-.02,.08-.06,.15-.12,.19s-.13,.07-.22,.07c-.12,0-.21-.04-.28-.11-.07-.07-.1-.17-.1-.3s.03-.22,.1-.3c.06-.08,.16-.12,.27-.12,.06,0,.11,.01,.17,.04s.1,.07,.14,.13c.04,.06,.06,.15,.06,.28Zm-.14-.11c0-.08-.03-.14-.07-.17-.04-.04-.09-.05-.14-.05-.06,0-.11,.02-.15,.06s-.06,.1-.07,.16h.44Z"/>
    <path class="cls-4" d="M28.62,17.42h-.13v-.48c0-.08-.01-.14-.04-.17-.03-.03-.07-.05-.12-.05-.04,0-.08,0-.11,.03-.04,.02-.06,.05-.08,.08s-.02,.08-.02,.15v.43h-.13v-.79h.12v.11h0s.06-.08,.1-.1c.04-.02,.09-.03,.14-.03,.04,0,.08,0,.12,.02s.07,.04,.1,.07c.02,.03,.04,.06,.04,.09s0,.08,0,.14v.48Z"/>
    <path class="cls-4" d="M29.13,17.42s-.07,.01-.1,.01c-.06,0-.1-.01-.13-.03-.03-.02-.04-.05-.05-.08s0-.08,0-.13v-.45h-.1v-.1h.1v-.2l.13-.08v.28h.13v.1h-.13v.46s0,.07,.01,.08c0,.02,.03,.02,.06,.02,.02,0,.04,0,.06,0l.02,.12Z"/>
    <path class="cls-4" d="M29.89,17.42h-.12v-.12h0c-.06,.09-.14,.13-.25,.13-.05,0-.11-.01-.15-.04-.05-.03-.08-.06-.09-.11-.02-.04-.02-.1-.02-.17v-.49h.13v.44c0,.07,0,.12,.01,.15,0,.03,.02,.06,.05,.07,.03,.02,.06,.03,.1,.03,.05,0,.1-.02,.14-.05,.04-.03,.07-.11,.07-.22v-.42h.13v.79Z"/>
    <path class="cls-4" d="M31.16,17.42h-.13v-.5s0-.07,0-.09c0-.03-.02-.05-.04-.07-.02-.02-.05-.03-.1-.03-.05,0-.1,.02-.14,.05s-.06,.1-.06,.18v.46h-.13v-.51c0-.07-.01-.11-.04-.14s-.06-.04-.1-.04c-.06,0-.1,.02-.14,.06s-.06,.11-.06,.22v.41h-.13v-.79h.12v.11h0c.05-.08,.13-.13,.23-.13,.06,0,.11,.01,.14,.03,.04,.02,.06,.06,.08,.1,.06-.09,.14-.14,.24-.14,.08,0,.14,.02,.18,.07,.04,.04,.06,.11,.06,.2v.54Z"/>
    <path class="cls-4" d="M31.54,17.42h-.15v-.15h.15v.15Z"/>
  </g>
  <text class="cls-3" transform="translate(31.58 14.37)"><tspan class="cls-2" x="0" y="0">Guide</tspan><tspan class="cls-1" x="27.42" y="0">Hub</tspan></text>
  <rect class="cls-4" x="65.56" y="-28.31" width=".9" height="66" transform="translate(61.32 70.71) rotate(-90)"/>
</svg>