<?xml version="1.0" encoding="UTF-8"?>
<svg id="Layer_1" data-name="Layer 1" xmlns="http://www.w3.org/2000/svg" xmlns:xlink="http://www.w3.org/1999/xlink" viewBox="0 0 221.68 50.41">
  <defs>
    <style>
      .cls-1 {
        fill: url(#linear-gradient-2);
      }

      .cls-2 {
        fill: url(#linear-gradient-17);
      }

      .cls-3 {
        fill: url(#linear-gradient-15);
      }

      .cls-4 {
        fill: url(#linear-gradient-18);
      }

      .cls-5 {
        fill: url(#linear-gradient-28);
      }

      .cls-6 {
        fill: url(#linear-gradient-14);
      }

      .cls-7 {
        fill: url(#linear-gradient-36);
      }

      .cls-8 {
        fill: url(#linear-gradient-20);
      }

      .cls-9 {
        fill: url(#linear-gradient-6);
      }

      .cls-10 {
        fill: url(#linear-gradient-35);
      }

      .cls-11 {
        fill: url(#linear-gradient-32);
      }

      .cls-12 {
        fill: url(#linear-gradient-11);
      }

      .cls-13 {
        fill: url(#linear-gradient-39);
      }

      .cls-14 {
        fill: url(#linear-gradient-10);
      }

      .cls-15 {
        fill: url(#linear-gradient-37);
      }

      .cls-16 {
        fill: url(#linear-gradient-16);
      }

      .cls-17 {
        fill: url(#linear-gradient-31);
      }

      .cls-18 {
        fill: url(#linear-gradient-21);
      }

      .cls-19 {
        fill: url(#linear-gradient-25);
      }

      .cls-20 {
        fill: url(#linear-gradient-5);
      }

      .cls-21 {
        font-family: MyriadPro-Regular, 'Myriad Pro';
        font-size: 30px;
      }

      .cls-22 {
        fill: url(#linear-gradient-34);
      }

      .cls-23 {
        fill: url(#linear-gradient-7);
      }

      .cls-24 {
        fill: url(#linear-gradient-24);
      }

      .cls-25 {
        fill: url(#linear-gradient-9);
      }

      .cls-26 {
        fill: url(#linear-gradient-22);
      }

      .cls-27 {
        fill: url(#linear-gradient-3);
      }

      .cls-28 {
        fill: none;
        letter-spacing: -.09em;
        stroke: #e2e2e2;
        stroke-miterlimit: 10;
      }

      .cls-29 {
        fill: url(#linear-gradient);
      }

      .cls-30 {
        fill: url(#linear-gradient-27);
      }

      .cls-31 {
        fill: url(#linear-gradient-33);
      }

      .cls-32 {
        fill: url(#linear-gradient-38);
      }

      .cls-33 {
        fill: url(#linear-gradient-29);
      }

      .cls-34 {
        fill: url(#linear-gradient-30);
      }

      .cls-35 {
        fill: url(#linear-gradient-23);
      }

      .cls-36 {
        fill: url(#linear-gradient-19);
      }

      .cls-37 {
        fill: url(#linear-gradient-4);
      }

      .cls-38 {
        fill: #e2e2e2;
        letter-spacing: -.09em;
      }

      .cls-39 {
        fill: url(#linear-gradient-8);
      }

      .cls-40 {
        fill: url(#linear-gradient-12);
      }

      .cls-41 {
        fill: url(#linear-gradient-13);
      }

      .cls-42 {
        fill: url(#linear-gradient-26);
      }
    </style>
    <linearGradient id="linear-gradient" x1="68.32" y1="16.34" x2="70" y2="16.34" gradientUnits="userSpaceOnUse">
      <stop offset="0" stop-color="#e60234"/>
      <stop offset="1" stop-color="#8b0f32"/>
    </linearGradient>
    <linearGradient id="linear-gradient-2" x1="47.86" y1="27.63" x2="49.54" y2="27.63" xlink:href="#linear-gradient"/>
    <linearGradient id="linear-gradient-3" x1="50.66" y1="30.11" x2="55.71" y2="30.11" xlink:href="#linear-gradient"/>
    <linearGradient id="linear-gradient-4" x1="25.4" y1="29.79" x2="31.02" y2="29.79" xlink:href="#linear-gradient"/>
    <linearGradient id="linear-gradient-5" x1=".03" y1="26.17" x2="18.74" y2="26.17" gradientUnits="userSpaceOnUse">
      <stop offset="0" stop-color="#e60234"/>
      <stop offset="1" stop-color="#8b0f32"/>
    </linearGradient>
    <linearGradient id="linear-gradient-6" x1="21.39" y1="24.81" x2="69.5" y2="24.81" xlink:href="#linear-gradient-5"/>
    <linearGradient id="linear-gradient-7" x1="0" y1="16.3" x2="28.19" y2="16.3" xlink:href="#linear-gradient"/>
    <linearGradient id="linear-gradient-8" x1="0" y1="34.52" x2="70" y2="34.52" xlink:href="#linear-gradient"/>
    <linearGradient id="linear-gradient-9" x1="21.71" y1="37.41" x2="22.03" y2="37.41" xlink:href="#linear-gradient"/>
    <linearGradient id="linear-gradient-10" x1="22.56" y1="37.72" x2="23.98" y2="37.72" xlink:href="#linear-gradient"/>
    <linearGradient id="linear-gradient-11" x1="24.32" y1="38.08" x2="25.86" y2="38.08" xlink:href="#linear-gradient"/>
    <linearGradient id="linear-gradient-12" x1="26.21" y1="37.75" x2="27.81" y2="37.75" xlink:href="#linear-gradient"/>
    <linearGradient id="linear-gradient-13" x1="28.17" y1="37.72" x2="29.6" y2="37.72" xlink:href="#linear-gradient"/>
    <linearGradient id="linear-gradient-14" x1="30.04" y1="37.76" x2="31.46" y2="37.76" xlink:href="#linear-gradient"/>
    <linearGradient id="linear-gradient-15" x1="31.91" y1="37.41" x2="32.21" y2="37.41" xlink:href="#linear-gradient"/>
    <linearGradient id="linear-gradient-16" x1="32.49" y1="37.45" x2="33.34" y2="37.45" xlink:href="#linear-gradient"/>
    <linearGradient id="linear-gradient-17" x1="33.43" y1="38.1" x2="35.03" y2="38.1" xlink:href="#linear-gradient"/>
    <linearGradient id="linear-gradient-18" x1="35.35" y1="38.45" x2="35.69" y2="38.45" xlink:href="#linear-gradient"/>
    <linearGradient id="linear-gradient-19" x1="36.3" y1="37.41" x2="36.62" y2="37.41" xlink:href="#linear-gradient"/>
    <linearGradient id="linear-gradient-20" x1="37.15" y1="37.72" x2="38.57" y2="37.72" xlink:href="#linear-gradient"/>
    <linearGradient id="linear-gradient-21" x1="39.03" y1="37.72" x2="40.45" y2="37.72" xlink:href="#linear-gradient"/>
    <linearGradient id="linear-gradient-22" x1="40.79" y1="37.75" x2="42.42" y2="37.75" xlink:href="#linear-gradient"/>
    <linearGradient id="linear-gradient-23" x1="42.58" y1="37.74" x2="44.18" y2="37.74" xlink:href="#linear-gradient"/>
    <linearGradient id="linear-gradient-24" x1="44.35" y1="37.75" x2="45.96" y2="37.75" xlink:href="#linear-gradient"/>
    <linearGradient id="linear-gradient-25" x1="46.15" y1="37.45" x2="47" y2="37.45" xlink:href="#linear-gradient"/>
    <linearGradient id="linear-gradient-26" x1="47.25" y1="37.41" x2="47.55" y2="37.41" xlink:href="#linear-gradient"/>
    <linearGradient id="linear-gradient-27" x1="47.9" y1="37.75" x2="49.53" y2="37.75" xlink:href="#linear-gradient"/>
    <linearGradient id="linear-gradient-28" x1="49.88" y1="37.72" x2="51.3" y2="37.72" xlink:href="#linear-gradient"/>
    <linearGradient id="linear-gradient-29" x1="51.82" y1="38.45" x2="52.16" y2="38.45" xlink:href="#linear-gradient"/>
    <linearGradient id="linear-gradient-30" x1="52.71" y1="37.41" x2="55" y2="37.41" xlink:href="#linear-gradient"/>
    <linearGradient id="linear-gradient-31" x1="55.38" y1="37.75" x2="57.01" y2="37.75" xlink:href="#linear-gradient"/>
    <linearGradient id="linear-gradient-32" x1="57.35" y1="37.72" x2="59.72" y2="37.72" xlink:href="#linear-gradient"/>
    <linearGradient id="linear-gradient-33" x1="60.07" y1="37.75" x2="61.67" y2="37.75" xlink:href="#linear-gradient"/>
    <linearGradient id="linear-gradient-34" x1="62.03" y1="37.72" x2="63.46" y2="37.72" xlink:href="#linear-gradient"/>
    <linearGradient id="linear-gradient-35" x1="63.73" y1="37.45" x2="64.58" y2="37.45" xlink:href="#linear-gradient"/>
    <linearGradient id="linear-gradient-36" x1="64.83" y1="37.76" x2="66.25" y2="37.76" xlink:href="#linear-gradient"/>
    <linearGradient id="linear-gradient-37" x1="66.7" y1="37.72" x2="69.07" y2="37.72" xlink:href="#linear-gradient"/>
    <linearGradient id="linear-gradient-38" x1="69.59" y1="38.45" x2="69.92" y2="38.45" xlink:href="#linear-gradient"/>
    <linearGradient id="linear-gradient-39" x1="114.93" y1="-4.34" x2="116.69" y2="-4.34" gradientTransform="translate(15.3 6.06) scale(1.13 -1)" xlink:href="#linear-gradient"/>
  </defs>
  <rect class="cls-29" x="68.32" y=".09" width="1.68" height="32.51"/>
  <path class="cls-1" d="M47.86,22.66v9.94h1.68v-9.18c-.55-.27-1.11-.52-1.68-.76Z"/>
  <path class="cls-27" d="M50.66,30.11c0-.7,.28-1.33,.74-1.78s1.09-.74,1.78-.74,1.33,.28,1.78,.74,.74,1.09,.74,1.78-.28,1.33-.74,1.78-1.09,.74-1.78,.74-1.33-.28-1.78-.74-.74-1.09-.74-1.78Z"/>
  <path class="cls-37" d="M25.4,29.79c0-.78,.31-1.48,.82-1.99s1.21-.82,1.99-.82,1.48,.31,1.99,.82,.82,1.21,.82,1.99-.31,1.48-.82,1.99-1.21,.82-1.99,.82-1.48-.31-1.99-.82-.82-1.21-.82-1.99Z"/>
  <g>
    <path class="cls-20" d="M18.18,19.75c-4.2,1.46-8,3.46-11.23,5.87C4.21,27.67,1.87,30.02,.03,32.6H.58c1.59-1.97,3.52-3.78,5.72-5.39,3.52-2.58,7.74-4.64,12.44-6.01l-.55-1.45Z"/>
    <path class="cls-9" d="M62.58,25.62c-7.12-5.32-16.95-8.61-27.81-8.61-4.7,0-9.2,.62-13.38,1.74l.62,1.61c3.33-.72,6.86-1.11,10.52-1.11,10.24,0,19.52,3.04,26.23,7.95,2.2,1.61,4.12,3.42,5.72,5.39h5.04c-1.84-2.58-4.18-4.93-6.92-6.98Z"/>
  </g>
  <path class="cls-23" d="M23.37,26.16c.1-.71,.42-1.34,.89-1.82,.57-.58,1.36-.93,2.23-.93,.63,0,1.21,.19,1.7,.51L16.26,0,0,32.6H5.62L15.02,6.87h0l.15-.41,.15,.41h0l8.06,19.29Z"/>
  <rect class="cls-39" y="33.96" width="70" height="1.12"/>
  <g>
    <path class="cls-25" d="M22.03,38.62h-.32v-2.41h.32v2.41Z"/>
    <path class="cls-14" d="M23.98,38.62h-.3v-1.06c0-.18-.03-.3-.1-.37s-.15-.1-.27-.1c-.09,0-.17,.02-.25,.06s-.13,.1-.17,.18-.05,.19-.05,.33v.95h-.3v-1.74h.27v.25h0c.06-.1,.14-.17,.23-.21,.09-.05,.2-.07,.32-.07,.09,0,.18,.02,.27,.05s.16,.08,.21,.15,.08,.14,.1,.21,.02,.18,.02,.3v1.07Z"/>
    <path class="cls-12" d="M25.86,38.38c0,.25-.02,.43-.07,.55-.05,.12-.14,.22-.26,.29s-.28,.1-.45,.1c-.2,0-.36-.04-.49-.13-.13-.09-.2-.23-.2-.43l.29,.04c.01,.09,.05,.16,.12,.21s.16,.07,.28,.07c.15,0,.27-.03,.34-.09s.11-.14,.13-.23c.02-.09,.02-.21,.02-.37-.13,.15-.29,.23-.48,.23-.23,0-.41-.08-.55-.25s-.21-.38-.21-.63,.07-.47,.2-.64,.32-.26,.56-.26c.21,0,.37,.08,.5,.25h0v-.21h.27v1.51Zm-.76,0c.13,0,.24-.05,.34-.15,.1-.1,.15-.27,.15-.5,0-.21-.05-.37-.14-.48-.09-.11-.21-.17-.35-.17s-.25,.06-.34,.17-.13,.27-.13,.47c0,.23,.05,.4,.14,.5s.21,.16,.34,.16Z"/>
    <path class="cls-40" d="M27.81,37.82h-1.31c.01,.19,.07,.34,.17,.44,.1,.1,.22,.15,.37,.15,.11,0,.21-.03,.28-.09s.14-.15,.18-.27l.3,.04c-.05,.18-.14,.32-.27,.42s-.3,.15-.49,.15c-.26,0-.47-.08-.61-.24-.15-.16-.22-.38-.22-.66s.07-.5,.21-.67c.14-.17,.34-.26,.6-.26,.13,0,.25,.03,.37,.08s.22,.15,.3,.29c.08,.13,.12,.34,.12,.62Zm-.3-.24c-.01-.18-.07-.31-.17-.38-.1-.08-.21-.12-.32-.12-.14,0-.25,.05-.34,.14s-.14,.21-.16,.36h.99Z"/>
    <path class="cls-41" d="M29.6,38.62h-.3v-1.06c0-.18-.03-.3-.1-.37-.06-.07-.15-.1-.27-.1-.09,0-.17,.02-.25,.06-.08,.04-.13,.1-.17,.18s-.05,.19-.05,.33v.95h-.3v-1.74h.27v.25h0c.06-.1,.14-.17,.23-.21,.09-.05,.2-.07,.32-.07,.09,0,.18,.02,.27,.05s.16,.08,.21,.15c.05,.07,.08,.14,.1,.21s.02,.18,.02,.3v1.07Z"/>
    <path class="cls-6" d="M31.46,38.62h-.26v-.26h0c-.13,.2-.32,.3-.55,.3-.12,0-.23-.03-.34-.08-.1-.06-.17-.13-.21-.23-.03-.1-.05-.23-.05-.39v-1.08h.3v.97c0,.15,0,.27,.02,.33,.01,.07,.05,.12,.12,.17,.06,.04,.14,.06,.22,.06,.11,0,.22-.04,.32-.12,.1-.08,.15-.24,.15-.48v-.93h.3v1.74Z"/>
    <path class="cls-3" d="M32.21,36.54h-.3v-.34h.3v.34Zm0,2.07h-.3v-1.74h.3v1.74Z"/>
    <path class="cls-16" d="M33.34,38.61c-.09,.02-.16,.03-.22,.03-.13,0-.22-.02-.28-.07-.06-.05-.1-.1-.11-.17s-.02-.17-.02-.29v-1h-.22v-.23h.22v-.43l.3-.18v.61h.3v.23h-.3v1.02c0,.09,0,.15,.03,.19,.02,.04,.06,.05,.14,.05,.04,0,.09,0,.13-.01l.04,.26Z"/>
    <path class="cls-2" d="M35.03,36.87l-.67,1.77s0,0,0,.01c-.06,.2-.14,.36-.22,.48-.09,.12-.21,.18-.36,.18-.05,0-.12-.01-.19-.03l-.03-.28c.06,.02,.11,.03,.17,.03,.11,0,.19-.03,.23-.09s.09-.17,.14-.33l-.66-1.75h.32l.41,1.14c.02,.07,.05,.16,.08,.27h0c.03-.13,.06-.25,.11-.36l.38-1.05h.3Z"/>
    <path class="cls-4" d="M35.69,38.62h-.34v-.34h.34v.34Z"/>
    <path class="cls-36" d="M36.62,38.62h-.32v-2.41h.32v2.41Z"/>
    <path class="cls-8" d="M38.57,38.62h-.3v-1.06c0-.18-.03-.3-.1-.37-.06-.07-.15-.1-.27-.1-.09,0-.17,.02-.25,.06-.08,.04-.13,.1-.17,.18s-.05,.19-.05,.33v.95h-.3v-1.74h.27v.25h0c.06-.1,.14-.17,.23-.21,.09-.05,.2-.07,.32-.07,.09,0,.18,.02,.27,.05s.16,.08,.21,.15c.05,.07,.08,.14,.1,.21s.02,.18,.02,.3v1.07Z"/>
    <path class="cls-18" d="M40.45,38.62h-.3v-1.06c0-.18-.03-.3-.1-.37-.06-.07-.15-.1-.27-.1-.09,0-.17,.02-.25,.06-.08,.04-.13,.1-.17,.18s-.05,.19-.05,.33v.95h-.3v-1.74h.27v.25h0c.06-.1,.14-.17,.23-.21,.09-.05,.2-.07,.32-.07,.09,0,.18,.02,.27,.05,.09,.03,.16,.08,.21,.15,.05,.07,.08,.14,.1,.21s.02,.18,.02,.3v1.07Z"/>
    <path class="cls-26" d="M41.6,36.83c.24,0,.43,.08,.59,.23s.23,.37,.23,.65c0,.34-.08,.59-.25,.73-.17,.14-.36,.21-.57,.21s-.41-.07-.57-.22-.24-.38-.24-.69,.08-.54,.23-.69,.35-.23,.58-.23Zm0,1.58c.17,0,.3-.06,.38-.19s.13-.29,.13-.49c0-.22-.05-.38-.15-.49-.1-.11-.22-.17-.37-.17s-.27,.06-.37,.17-.14,.28-.14,.5,.05,.39,.15,.5,.22,.17,.37,.17Z"/>
    <path class="cls-35" d="M44.18,36.87l-.66,1.74h-.28l-.66-1.74h.31l.36,1.01c.07,.19,.11,.32,.12,.39h0c.02-.07,.05-.16,.09-.28l.4-1.11h.3Z"/>
    <path class="cls-24" d="M45.96,38.62h-.31c-.03-.05-.05-.13-.06-.22-.2,.17-.41,.26-.64,.26-.18,0-.33-.05-.44-.14s-.16-.21-.16-.36,.05-.26,.15-.36c.1-.09,.28-.16,.53-.19l.28-.04c.1-.02,.19-.04,.25-.06,0-.09,0-.15,0-.19,0-.04-.02-.07-.05-.11-.03-.04-.07-.07-.13-.1s-.14-.04-.24-.04c-.13,0-.23,.02-.3,.07-.07,.05-.12,.13-.15,.26l-.29-.04c.03-.18,.11-.31,.24-.4s.31-.13,.54-.13c.21,0,.36,.03,.46,.09,.1,.06,.16,.14,.18,.22,.02,.09,.03,.2,.03,.34v.4c0,.24,0,.4,.01,.49s.04,.16,.08,.24Zm-.39-.77v-.11c-.15,.05-.34,.09-.57,.12s-.34,.12-.34,.28c0,.08,.03,.15,.09,.2,.06,.05,.15,.08,.26,.08,.15,0,.27-.04,.39-.13,.11-.09,.17-.24,.17-.44Z"/>
    <path class="cls-19" d="M47,38.61c-.09,.02-.16,.03-.22,.03-.13,0-.22-.02-.28-.07-.06-.05-.1-.1-.11-.17s-.02-.17-.02-.29v-1h-.22v-.23h.22v-.43l.3-.18v.61h.3v.23h-.3v1.02c0,.09,0,.15,.03,.19,.02,.04,.06,.05,.14,.05,.04,0,.09,0,.13-.01l.04,.26Z"/>
    <path class="cls-42" d="M47.55,36.54h-.3v-.34h.3v.34Zm0,2.07h-.3v-1.74h.3v1.74Z"/>
    <path class="cls-30" d="M48.71,36.83c.24,0,.43,.08,.59,.23s.23,.37,.23,.65c0,.34-.08,.59-.25,.73-.17,.14-.36,.21-.57,.21s-.41-.07-.57-.22-.24-.38-.24-.69,.08-.54,.23-.69,.35-.23,.58-.23Zm0,1.58c.17,0,.3-.06,.38-.19s.13-.29,.13-.49c0-.22-.05-.38-.15-.49-.1-.11-.22-.17-.37-.17s-.27,.06-.37,.17c-.1,.11-.14,.28-.14,.5s.05,.39,.15,.5,.22,.17,.37,.17Z"/>
    <path class="cls-5" d="M51.3,38.62h-.3v-1.06c0-.18-.03-.3-.1-.37-.06-.07-.15-.1-.27-.1-.09,0-.17,.02-.25,.06-.08,.04-.13,.1-.17,.18s-.05,.19-.05,.33v.95h-.3v-1.74h.27v.25h0c.06-.1,.14-.17,.23-.21,.09-.05,.2-.07,.32-.07,.09,0,.18,.02,.27,.05s.16,.08,.21,.15c.05,.07,.08,.14,.1,.21s.02,.18,.02,.3v1.07Z"/>
    <path class="cls-33" d="M52.16,38.62h-.34v-.34h.34v.34Z"/>
    <path class="cls-34" d="M55,38.62h-.3v-2.02h0l-.69,2.02h-.29l-.69-2.05h0v2.05h-.3v-2.41h.48l.57,1.71c.06,.19,.1,.31,.11,.36h0c.03-.09,.07-.22,.13-.39l.58-1.68h.42v2.41Z"/>
    <path class="cls-17" d="M56.19,36.83c.24,0,.43,.08,.59,.23s.23,.37,.23,.65c0,.34-.08,.59-.25,.73-.17,.14-.36,.21-.57,.21s-.41-.07-.57-.22-.24-.38-.24-.69,.08-.54,.23-.69,.35-.23,.58-.23Zm0,1.58c.17,0,.3-.06,.38-.19s.13-.29,.13-.49c0-.22-.05-.38-.15-.49-.1-.11-.22-.17-.37-.17s-.27,.06-.37,.17-.14,.28-.14,.5,.05,.39,.15,.5,.22,.17,.37,.17Z"/>
    <path class="cls-11" d="M59.72,38.62h-.3v-1.1c0-.08,0-.15-.02-.21-.01-.06-.04-.11-.08-.15-.05-.04-.12-.07-.21-.07-.12,0-.22,.04-.3,.12s-.13,.21-.13,.39v1.01h-.3v-1.13c0-.15-.03-.25-.08-.31s-.13-.08-.23-.08c-.13,0-.23,.04-.31,.13s-.12,.25-.12,.49v.91h-.3v-1.74h.27v.24h0c.12-.19,.29-.28,.52-.28,.13,0,.23,.03,.32,.08,.08,.05,.14,.13,.18,.23,.13-.2,.31-.31,.54-.31,.18,0,.32,.05,.41,.15,.09,.1,.14,.24,.14,.44v1.2Z"/>
    <path class="cls-31" d="M61.67,37.82h-1.31c.01,.19,.07,.34,.17,.44,.1,.1,.22,.15,.37,.15,.11,0,.21-.03,.28-.09s.14-.15,.18-.27l.3,.04c-.05,.18-.14,.32-.27,.42s-.3,.15-.49,.15c-.26,0-.47-.08-.61-.24-.15-.16-.22-.38-.22-.66s.07-.5,.21-.67c.14-.17,.34-.26,.6-.26,.13,0,.25,.03,.37,.08s.22,.15,.3,.29c.08,.13,.12,.34,.12,.62Zm-.3-.24c-.01-.18-.07-.31-.17-.38-.1-.08-.21-.12-.32-.12-.14,0-.25,.05-.34,.14s-.14,.21-.16,.36h.99Z"/>
    <path class="cls-22" d="M63.46,38.62h-.3v-1.06c0-.18-.03-.3-.1-.37-.06-.07-.15-.1-.27-.1-.09,0-.17,.02-.25,.06-.08,.04-.13,.1-.17,.18s-.05,.19-.05,.33v.95h-.3v-1.74h.27v.25h0c.06-.1,.14-.17,.23-.21,.09-.05,.2-.07,.32-.07,.09,0,.18,.02,.27,.05s.16,.08,.21,.15c.05,.07,.08,.14,.1,.21s.02,.18,.02,.3v1.07Z"/>
    <path class="cls-10" d="M64.58,38.61c-.09,.02-.16,.03-.22,.03-.13,0-.22-.02-.28-.07-.06-.05-.1-.1-.11-.17s-.02-.17-.02-.29v-1h-.22v-.23h.22v-.43l.3-.18v.61h.3v.23h-.3v1.02c0,.09,0,.15,.03,.19,.02,.04,.06,.05,.14,.05,.04,0,.09,0,.13-.01l.04,.26Z"/>
    <path class="cls-7" d="M66.25,38.62h-.26v-.26h0c-.13,.2-.32,.3-.55,.3-.12,0-.23-.03-.34-.08-.1-.06-.17-.13-.21-.23-.03-.1-.05-.23-.05-.39v-1.08h.3v.97c0,.15,0,.27,.02,.33,.01,.07,.05,.12,.12,.17,.06,.04,.14,.06,.22,.06,.11,0,.22-.04,.32-.12,.1-.08,.15-.24,.15-.48v-.93h.3v1.74Z"/>
    <path class="cls-15" d="M69.07,38.62h-.3v-1.1c0-.08,0-.15-.02-.21-.01-.06-.04-.11-.08-.15-.05-.04-.12-.07-.21-.07-.12,0-.22,.04-.3,.12s-.13,.21-.13,.39v1.01h-.3v-1.13c0-.15-.03-.25-.08-.31s-.13-.08-.23-.08c-.13,0-.23,.04-.31,.13s-.12,.25-.12,.49v.91h-.3v-1.74h.27v.24h0c.12-.19,.29-.28,.52-.28,.13,0,.23,.03,.32,.08,.08,.05,.14,.13,.18,.23,.13-.2,.31-.31,.54-.31,.18,0,.32,.05,.41,.15,.09,.1,.14,.24,.14,.44v1.2Z"/>
    <path class="cls-32" d="M69.92,38.62h-.34v-.34h.34v.34Z"/>
  </g>
  <text class="cls-21" transform="translate(70 31.86)"><tspan class="cls-38" x="0" y="0">Guide</tspan><tspan class="cls-28" x="60.78" y="0">Hub</tspan></text>
  <rect class="cls-13" x="145.34" y="-62.76" width="2" height="146.32" transform="translate(135.94 156.74) rotate(-90)"/>
</svg>