<?xml version="1.0" encoding="UTF-8"?>
<svg id="Layer_1" data-name="Layer 1" xmlns="http://www.w3.org/2000/svg" viewBox="0 0 221.68 50.41">
  <defs>
    <style>
      .cls-1 {
        font-family: MyriadPro-Regular, 'Myriad Pro';
        font-size: 30px;
      }

      .cls-2 {
        fill: none;
        letter-spacing: -.09em;
        stroke: #e2e2e2;
        stroke-miterlimit: 10;
      }

      .cls-3 {
        fill: #231f20;
      }

      .cls-4 {
        fill: #e2e2e2;
        letter-spacing: -.09em;
      }
    </style>
  </defs>
  <rect class="cls-3" x="68.32" y=".09" width="1.68" height="32.51"/>
  <path class="cls-3" d="M47.86,22.66v9.94h1.68v-9.18c-.55-.27-1.11-.52-1.68-.76Z"/>
  <path class="cls-3" d="M50.66,30.11c0-.7,.28-1.33,.74-1.78s1.09-.74,1.78-.74,1.33,.28,1.78,.74,.74,1.09,.74,1.78-.28,1.33-.74,1.78-1.09,.74-1.78,.74-1.33-.28-1.78-.74-.74-1.09-.74-1.78Z"/>
  <path class="cls-3" d="M25.4,29.79c0-.78,.31-1.48,.82-1.99s1.21-.82,1.99-.82,1.48,.31,1.99,.82,.82,1.21,.82,1.99-.31,1.48-.82,1.99-1.21,.82-1.99,.82-1.48-.31-1.99-.82-.82-1.21-.82-1.99Z"/>
  <g>
    <path class="cls-3" d="M18.18,19.75c-4.2,1.46-8,3.46-11.23,5.87C4.21,27.67,1.87,30.02,.03,32.6H.58c1.59-1.97,3.52-3.78,5.72-5.39,3.52-2.58,7.74-4.64,12.44-6.01l-.55-1.45Z"/>
    <path class="cls-3" d="M62.58,25.62c-7.12-5.32-16.95-8.61-27.81-8.61-4.7,0-9.2,.62-13.38,1.74l.62,1.61c3.33-.72,6.86-1.11,10.52-1.11,10.24,0,19.52,3.04,26.23,7.95,2.2,1.61,4.12,3.42,5.72,5.39h5.04c-1.84-2.58-4.18-4.93-6.92-6.98Z"/>
  </g>
  <path class="cls-3" d="M23.37,26.16c.1-.71,.42-1.34,.89-1.82,.57-.58,1.36-.93,2.23-.93,.63,0,1.21,.19,1.7,.51L16.26,0,0,32.6H5.62L15.02,6.87h0l.15-.41,.15,.41h0l8.06,19.29Z"/>
  <rect class="cls-3" y="33.96" width="70" height="1.12"/>
  <g>
    <path class="cls-3" d="M22.03,38.62h-.32v-2.41h.32v2.41Z"/>
    <path class="cls-3" d="M23.98,38.62h-.3v-1.06c0-.18-.03-.3-.1-.37s-.15-.1-.27-.1c-.09,0-.17,.02-.25,.06s-.13,.1-.17,.18-.05,.19-.05,.33v.95h-.3v-1.74h.27v.25h0c.06-.1,.14-.17,.23-.21,.09-.05,.2-.07,.32-.07,.09,0,.18,.02,.27,.05s.16,.08,.21,.15,.08,.14,.1,.21,.02,.18,.02,.3v1.07Z"/>
    <path class="cls-3" d="M25.86,38.38c0,.25-.02,.43-.07,.55-.05,.12-.14,.22-.26,.29s-.28,.1-.45,.1c-.2,0-.36-.04-.49-.13-.13-.09-.2-.23-.2-.43l.29,.04c.01,.09,.05,.16,.12,.21s.16,.07,.28,.07c.15,0,.27-.03,.34-.09s.11-.14,.13-.23c.02-.09,.02-.21,.02-.37-.13,.15-.29,.23-.48,.23-.23,0-.41-.08-.55-.25s-.21-.38-.21-.63,.07-.47,.2-.64,.32-.26,.56-.26c.21,0,.37,.08,.5,.25h0v-.21h.27v1.51Zm-.76,0c.13,0,.24-.05,.34-.15,.1-.1,.15-.27,.15-.5,0-.21-.05-.37-.14-.48-.09-.11-.21-.17-.35-.17s-.25,.06-.34,.17-.13,.27-.13,.47c0,.23,.05,.4,.14,.5s.21,.16,.34,.16Z"/>
    <path class="cls-3" d="M27.81,37.82h-1.31c.01,.19,.07,.34,.17,.44,.1,.1,.22,.15,.37,.15,.11,0,.21-.03,.28-.09s.14-.15,.18-.27l.3,.04c-.05,.18-.14,.32-.27,.42s-.3,.15-.49,.15c-.26,0-.47-.08-.61-.24-.15-.16-.22-.38-.22-.66s.07-.5,.21-.67c.14-.17,.34-.26,.6-.26,.13,0,.25,.03,.37,.08s.22,.15,.3,.29c.08,.13,.12,.34,.12,.62Zm-.3-.24c-.01-.18-.07-.31-.17-.38-.1-.08-.21-.12-.32-.12-.14,0-.25,.05-.34,.14s-.14,.21-.16,.36h.99Z"/>
    <path class="cls-3" d="M29.6,38.62h-.3v-1.06c0-.18-.03-.3-.1-.37-.06-.07-.15-.1-.27-.1-.09,0-.17,.02-.25,.06-.08,.04-.13,.1-.17,.18s-.05,.19-.05,.33v.95h-.3v-1.74h.27v.25h0c.06-.1,.14-.17,.23-.21,.09-.05,.2-.07,.32-.07,.09,0,.18,.02,.27,.05s.16,.08,.21,.15c.05,.07,.08,.14,.1,.21s.02,.18,.02,.3v1.07Z"/>
    <path class="cls-3" d="M31.46,38.62h-.26v-.26h0c-.13,.2-.32,.3-.55,.3-.12,0-.23-.03-.34-.08-.1-.06-.17-.13-.21-.23-.03-.1-.05-.23-.05-.39v-1.08h.3v.97c0,.15,0,.27,.02,.33,.01,.07,.05,.12,.12,.17,.06,.04,.14,.06,.22,.06,.11,0,.22-.04,.32-.12,.1-.08,.15-.24,.15-.48v-.93h.3v1.74Z"/>
    <path class="cls-3" d="M32.21,36.54h-.3v-.34h.3v.34Zm0,2.07h-.3v-1.74h.3v1.74Z"/>
    <path class="cls-3" d="M33.34,38.61c-.09,.02-.16,.03-.22,.03-.13,0-.22-.02-.28-.07-.06-.05-.1-.1-.11-.17s-.02-.17-.02-.29v-1h-.22v-.23h.22v-.43l.3-.18v.61h.3v.23h-.3v1.02c0,.09,0,.15,.03,.19,.02,.04,.06,.05,.14,.05,.04,0,.09,0,.13-.01l.04,.26Z"/>
    <path class="cls-3" d="M35.03,36.87l-.67,1.77s0,0,0,.01c-.06,.2-.14,.36-.22,.48-.09,.12-.21,.18-.36,.18-.05,0-.12-.01-.19-.03l-.03-.28c.06,.02,.11,.03,.17,.03,.11,0,.19-.03,.23-.09s.09-.17,.14-.33l-.66-1.75h.32l.41,1.14c.02,.07,.05,.16,.08,.27h0c.03-.13,.06-.25,.11-.36l.38-1.05h.3Z"/>
    <path class="cls-3" d="M35.69,38.62h-.34v-.34h.34v.34Z"/>
    <path class="cls-3" d="M36.62,38.62h-.32v-2.41h.32v2.41Z"/>
    <path class="cls-3" d="M38.57,38.62h-.3v-1.06c0-.18-.03-.3-.1-.37-.06-.07-.15-.1-.27-.1-.09,0-.17,.02-.25,.06-.08,.04-.13,.1-.17,.18s-.05,.19-.05,.33v.95h-.3v-1.74h.27v.25h0c.06-.1,.14-.17,.23-.21,.09-.05,.2-.07,.32-.07,.09,0,.18,.02,.27,.05s.16,.08,.21,.15c.05,.07,.08,.14,.1,.21s.02,.18,.02,.3v1.07Z"/>
    <path class="cls-3" d="M40.45,38.62h-.3v-1.06c0-.18-.03-.3-.1-.37-.06-.07-.15-.1-.27-.1-.09,0-.17,.02-.25,.06-.08,.04-.13,.1-.17,.18s-.05,.19-.05,.33v.95h-.3v-1.74h.27v.25h0c.06-.1,.14-.17,.23-.21,.09-.05,.2-.07,.32-.07,.09,0,.18,.02,.27,.05,.09,.03,.16,.08,.21,.15,.05,.07,.08,.14,.1,.21s.02,.18,.02,.3v1.07Z"/>
    <path class="cls-3" d="M41.6,36.83c.24,0,.43,.08,.59,.23s.23,.37,.23,.65c0,.34-.08,.59-.25,.73-.17,.14-.36,.21-.57,.21s-.41-.07-.57-.22-.24-.38-.24-.69,.08-.54,.23-.69,.35-.23,.58-.23Zm0,1.58c.17,0,.3-.06,.38-.19s.13-.29,.13-.49c0-.22-.05-.38-.15-.49-.1-.11-.22-.17-.37-.17s-.27,.06-.37,.17-.14,.28-.14,.5,.05,.39,.15,.5,.22,.17,.37,.17Z"/>
    <path class="cls-3" d="M44.18,36.87l-.66,1.74h-.28l-.66-1.74h.31l.36,1.01c.07,.19,.11,.32,.12,.39h0c.02-.07,.05-.16,.09-.28l.4-1.11h.3Z"/>
    <path class="cls-3" d="M45.96,38.62h-.31c-.03-.05-.05-.13-.06-.22-.2,.17-.41,.26-.64,.26-.18,0-.33-.05-.44-.14s-.16-.21-.16-.36,.05-.26,.15-.36c.1-.09,.28-.16,.53-.19l.28-.04c.1-.02,.19-.04,.25-.06,0-.09,0-.15,0-.19,0-.04-.02-.07-.05-.11-.03-.04-.07-.07-.13-.1s-.14-.04-.24-.04c-.13,0-.23,.02-.3,.07-.07,.05-.12,.13-.15,.26l-.29-.04c.03-.18,.11-.31,.24-.4s.31-.13,.54-.13c.21,0,.36,.03,.46,.09,.1,.06,.16,.14,.18,.22,.02,.09,.03,.2,.03,.34v.4c0,.24,0,.4,.01,.49s.04,.16,.08,.24Zm-.39-.77v-.11c-.15,.05-.34,.09-.57,.12s-.34,.12-.34,.28c0,.08,.03,.15,.09,.2,.06,.05,.15,.08,.26,.08,.15,0,.27-.04,.39-.13,.11-.09,.17-.24,.17-.44Z"/>
    <path class="cls-3" d="M47,38.61c-.09,.02-.16,.03-.22,.03-.13,0-.22-.02-.28-.07-.06-.05-.1-.1-.11-.17s-.02-.17-.02-.29v-1h-.22v-.23h.22v-.43l.3-.18v.61h.3v.23h-.3v1.02c0,.09,0,.15,.03,.19,.02,.04,.06,.05,.14,.05,.04,0,.09,0,.13-.01l.04,.26Z"/>
    <path class="cls-3" d="M47.55,36.54h-.3v-.34h.3v.34Zm0,2.07h-.3v-1.74h.3v1.74Z"/>
    <path class="cls-3" d="M48.71,36.83c.24,0,.43,.08,.59,.23s.23,.37,.23,.65c0,.34-.08,.59-.25,.73-.17,.14-.36,.21-.57,.21s-.41-.07-.57-.22-.24-.38-.24-.69,.08-.54,.23-.69,.35-.23,.58-.23Zm0,1.58c.17,0,.3-.06,.38-.19s.13-.29,.13-.49c0-.22-.05-.38-.15-.49-.1-.11-.22-.17-.37-.17s-.27,.06-.37,.17c-.1,.11-.14,.28-.14,.5s.05,.39,.15,.5,.22,.17,.37,.17Z"/>
    <path class="cls-3" d="M51.3,38.62h-.3v-1.06c0-.18-.03-.3-.1-.37-.06-.07-.15-.1-.27-.1-.09,0-.17,.02-.25,.06-.08,.04-.13,.1-.17,.18s-.05,.19-.05,.33v.95h-.3v-1.74h.27v.25h0c.06-.1,.14-.17,.23-.21,.09-.05,.2-.07,.32-.07,.09,0,.18,.02,.27,.05s.16,.08,.21,.15c.05,.07,.08,.14,.1,.21s.02,.18,.02,.3v1.07Z"/>
    <path class="cls-3" d="M52.16,38.62h-.34v-.34h.34v.34Z"/>
    <path class="cls-3" d="M55,38.62h-.3v-2.02h0l-.69,2.02h-.29l-.69-2.05h0v2.05h-.3v-2.41h.48l.57,1.71c.06,.19,.1,.31,.11,.36h0c.03-.09,.07-.22,.13-.39l.58-1.68h.42v2.41Z"/>
    <path class="cls-3" d="M56.19,36.83c.24,0,.43,.08,.59,.23s.23,.37,.23,.65c0,.34-.08,.59-.25,.73-.17,.14-.36,.21-.57,.21s-.41-.07-.57-.22-.24-.38-.24-.69,.08-.54,.23-.69,.35-.23,.58-.23Zm0,1.58c.17,0,.3-.06,.38-.19s.13-.29,.13-.49c0-.22-.05-.38-.15-.49-.1-.11-.22-.17-.37-.17s-.27,.06-.37,.17-.14,.28-.14,.5,.05,.39,.15,.5,.22,.17,.37,.17Z"/>
    <path class="cls-3" d="M59.72,38.62h-.3v-1.1c0-.08,0-.15-.02-.21-.01-.06-.04-.11-.08-.15-.05-.04-.12-.07-.21-.07-.12,0-.22,.04-.3,.12s-.13,.21-.13,.39v1.01h-.3v-1.13c0-.15-.03-.25-.08-.31s-.13-.08-.23-.08c-.13,0-.23,.04-.31,.13s-.12,.25-.12,.49v.91h-.3v-1.74h.27v.24h0c.12-.19,.29-.28,.52-.28,.13,0,.23,.03,.32,.08,.08,.05,.14,.13,.18,.23,.13-.2,.31-.31,.54-.31,.18,0,.32,.05,.41,.15,.09,.1,.14,.24,.14,.44v1.2Z"/>
    <path class="cls-3" d="M61.67,37.82h-1.31c.01,.19,.07,.34,.17,.44,.1,.1,.22,.15,.37,.15,.11,0,.21-.03,.28-.09s.14-.15,.18-.27l.3,.04c-.05,.18-.14,.32-.27,.42s-.3,.15-.49,.15c-.26,0-.47-.08-.61-.24-.15-.16-.22-.38-.22-.66s.07-.5,.21-.67c.14-.17,.34-.26,.6-.26,.13,0,.25,.03,.37,.08s.22,.15,.3,.29c.08,.13,.12,.34,.12,.62Zm-.3-.24c-.01-.18-.07-.31-.17-.38-.1-.08-.21-.12-.32-.12-.14,0-.25,.05-.34,.14s-.14,.21-.16,.36h.99Z"/>
    <path class="cls-3" d="M63.46,38.62h-.3v-1.06c0-.18-.03-.3-.1-.37-.06-.07-.15-.1-.27-.1-.09,0-.17,.02-.25,.06-.08,.04-.13,.1-.17,.18s-.05,.19-.05,.33v.95h-.3v-1.74h.27v.25h0c.06-.1,.14-.17,.23-.21,.09-.05,.2-.07,.32-.07,.09,0,.18,.02,.27,.05s.16,.08,.21,.15c.05,.07,.08,.14,.1,.21s.02,.18,.02,.3v1.07Z"/>
    <path class="cls-3" d="M64.58,38.61c-.09,.02-.16,.03-.22,.03-.13,0-.22-.02-.28-.07-.06-.05-.1-.1-.11-.17s-.02-.17-.02-.29v-1h-.22v-.23h.22v-.43l.3-.18v.61h.3v.23h-.3v1.02c0,.09,0,.15,.03,.19,.02,.04,.06,.05,.14,.05,.04,0,.09,0,.13-.01l.04,.26Z"/>
    <path class="cls-3" d="M66.25,38.62h-.26v-.26h0c-.13,.2-.32,.3-.55,.3-.12,0-.23-.03-.34-.08-.1-.06-.17-.13-.21-.23-.03-.1-.05-.23-.05-.39v-1.08h.3v.97c0,.15,0,.27,.02,.33,.01,.07,.05,.12,.12,.17,.06,.04,.14,.06,.22,.06,.11,0,.22-.04,.32-.12,.1-.08,.15-.24,.15-.48v-.93h.3v1.74Z"/>
    <path class="cls-3" d="M69.07,38.62h-.3v-1.1c0-.08,0-.15-.02-.21-.01-.06-.04-.11-.08-.15-.05-.04-.12-.07-.21-.07-.12,0-.22,.04-.3,.12s-.13,.21-.13,.39v1.01h-.3v-1.13c0-.15-.03-.25-.08-.31s-.13-.08-.23-.08c-.13,0-.23,.04-.31,.13s-.12,.25-.12,.49v.91h-.3v-1.74h.27v.24h0c.12-.19,.29-.28,.52-.28,.13,0,.23,.03,.32,.08,.08,.05,.14,.13,.18,.23,.13-.2,.31-.31,.54-.31,.18,0,.32,.05,.41,.15,.09,.1,.14,.24,.14,.44v1.2Z"/>
    <path class="cls-3" d="M69.92,38.62h-.34v-.34h.34v.34Z"/>
  </g>
  <text class="cls-1" transform="translate(70 31.86)"><tspan class="cls-4" x="0" y="0">Guide</tspan><tspan class="cls-2" x="60.78" y="0">Hub</tspan></text>
  <rect class="cls-3" x="145.34" y="-62.76" width="2" height="146.32" transform="translate(135.94 156.74) rotate(-90)"/>
</svg>